<svg width="17" height="18" viewBox="0 0 17 18" fill="none" xmlns="http://www.w3.org/2000/svg">
<path d="M4.90771 0.762695C5.06111 0.762695 5.20823 0.823633 5.3167 0.932102C5.42517 1.04057 5.4861 1.18769 5.4861 1.34109V2.42267H11.6972V1.34852C11.6972 1.19512 11.7581 1.04801 11.8666 0.939538C11.9751 0.831069 12.1222 0.770132 12.2756 0.770132C12.429 0.770132 12.5761 0.831069 12.6846 0.939538C12.793 1.04801 12.854 1.19512 12.854 1.34852V2.42267H15.0932C15.5313 2.42267 15.9515 2.59667 16.2614 2.9064C16.5713 3.21613 16.7455 3.63625 16.7457 4.07439V15.6364C16.7455 16.0745 16.5713 16.4947 16.2614 16.8044C15.9515 17.1141 15.5313 17.2881 15.0932 17.2881H1.87282C1.43468 17.2881 1.01447 17.1141 0.704586 16.8044C0.394698 16.4947 0.220495 16.0745 0.220276 15.6364L0.220276 4.07439C0.220495 3.63625 0.394698 3.21613 0.704586 2.9064C1.01447 2.59667 1.43468 2.42267 1.87282 2.42267H4.32932V1.34026C4.32954 1.187 4.39058 1.0401 4.49902 0.93181C4.60747 0.823519 4.75446 0.762695 4.90771 0.762695ZM1.37706 7.15969V15.6364C1.37706 15.7015 1.38988 15.766 1.41479 15.8261C1.43971 15.8863 1.47623 15.9409 1.52226 15.987C1.5683 16.033 1.62295 16.0695 1.6831 16.0944C1.74325 16.1193 1.80771 16.1322 1.87282 16.1322H15.0932C15.1583 16.1322 15.2227 16.1193 15.2829 16.0944C15.343 16.0695 15.3977 16.033 15.4437 15.987C15.4898 15.9409 15.5263 15.8863 15.5512 15.8261C15.5761 15.766 15.5889 15.7015 15.5889 15.6364V7.17126L1.37706 7.15969ZM5.72903 12.842V14.2185H4.35163V12.842H5.72903ZM9.17127 12.842V14.2185H7.7947V12.842H9.17127ZM12.6143 12.842V14.2185H11.237V12.842H12.6143ZM5.72903 9.55587V10.9324H4.35163V9.55587H5.72903ZM9.17127 9.55587V10.9324H7.7947V9.55587H9.17127ZM12.6143 9.55587V10.9324H11.237V9.55587H12.6143ZM4.32932 3.57863H1.87282C1.80771 3.57863 1.74325 3.59145 1.6831 3.61637C1.62295 3.64128 1.5683 3.6778 1.52226 3.72383C1.47623 3.76987 1.43971 3.82452 1.41479 3.88467C1.38988 3.94482 1.37706 4.00929 1.37706 4.07439V6.00373L15.5889 6.0153V4.07439C15.5889 4.00929 15.5761 3.94482 15.5512 3.88467C15.5263 3.82452 15.4898 3.76987 15.4437 3.72383C15.3977 3.6778 15.343 3.64128 15.2829 3.61637C15.2227 3.59145 15.1583 3.57863 15.0932 3.57863H12.854V4.34623C12.854 4.49963 12.793 4.64675 12.6846 4.75522C12.5761 4.86369 12.429 4.92462 12.2756 4.92462C12.1222 4.92462 11.9751 4.86369 11.8666 4.75522C11.7581 4.64675 11.6972 4.49963 11.6972 4.34623V3.57863H5.4861V4.3388C5.4861 4.4922 5.42517 4.63931 5.3167 4.74778C5.20823 4.85625 5.06111 4.91719 4.90771 4.91719C4.75431 4.91719 4.6072 4.85625 4.49873 4.74778C4.39026 4.63931 4.32932 4.4922 4.32932 4.3388V3.57863Z" fill="#404040"/>
</svg>
