<svg width="30" height="30" viewBox="0 0 30 30" fill="none" xmlns="http://www.w3.org/2000/svg">
<rect x="0.5" y="0.5" width="29" height="29" rx="4.5" stroke="#EBEBEB"/>
<path d="M13.25 10.275V10.45H16.05V10.275C16.05 9.9037 15.9025 9.5476 15.6399 9.28505C15.3774 9.0225 15.0213 8.875 14.65 8.875C14.2787 8.875 13.9226 9.0225 13.6601 9.28505C13.3975 9.5476 13.25 9.9037 13.25 10.275ZM12.375 10.45V10.275C12.375 9.67163 12.6147 9.09298 13.0413 8.66633C13.468 8.23969 14.0466 8 14.65 8C15.2534 8 15.832 8.23969 16.2587 8.66633C16.6853 9.09298 16.925 9.67163 16.925 10.275V10.45H20.8625C20.9785 10.45 21.0898 10.4961 21.1719 10.5781C21.2539 10.6602 21.3 10.7715 21.3 10.8875C21.3 11.0035 21.2539 11.1148 21.1719 11.1969C21.0898 11.2789 20.9785 11.325 20.8625 11.325H19.8415L19.1416 19.6746C19.0884 20.3087 18.7989 20.8996 18.3305 21.3303C17.8622 21.761 17.2491 22 16.6128 22H12.6872C12.051 21.9999 11.438 21.7609 10.9697 21.3302C10.5014 20.8995 10.212 20.3086 10.1588 19.6746L9.4588 11.325H8.4375C8.32147 11.325 8.21019 11.2789 8.12814 11.1969C8.04609 11.1148 8 11.0035 8 10.8875C8 10.7715 8.04609 10.6602 8.12814 10.5781C8.21019 10.4961 8.32147 10.45 8.4375 10.45H12.375ZM11.0307 19.6014C11.0655 20.0168 11.2551 20.404 11.5619 20.6862C11.8687 20.9683 12.2704 21.125 12.6872 21.125H16.6128C17.0297 21.1251 17.4314 20.9685 17.7383 20.6863C18.0452 20.4041 18.2349 20.0169 18.2697 19.6014L18.9634 11.325H10.3366L11.0307 19.6014ZM13.775 13.6875C13.775 13.63 13.7637 13.5732 13.7417 13.5201C13.7197 13.467 13.6875 13.4188 13.6469 13.3781C13.6062 13.3375 13.558 13.3053 13.5049 13.2833C13.4518 13.2613 13.395 13.25 13.3375 13.25C13.28 13.25 13.2232 13.2613 13.1701 13.2833C13.117 13.3053 13.0688 13.3375 13.0281 13.3781C12.9875 13.4188 12.9553 13.467 12.9333 13.5201C12.9113 13.5732 12.9 13.63 12.9 13.6875V18.7625C12.9 18.82 12.9113 18.8768 12.9333 18.9299C12.9553 18.983 12.9875 19.0312 13.0281 19.0719C13.0688 19.1125 13.117 19.1447 13.1701 19.1667C13.2232 19.1887 13.28 19.2 13.3375 19.2C13.395 19.2 13.4518 19.1887 13.5049 19.1667C13.558 19.1447 13.6062 19.1125 13.6469 19.0719C13.6875 19.0312 13.7197 18.983 13.7417 18.9299C13.7637 18.8768 13.775 18.82 13.775 18.7625V13.6875ZM15.9625 13.25C16.204 13.25 16.4 13.446 16.4 13.6875V18.7625C16.4 18.8785 16.3539 18.9898 16.2719 19.0719C16.1898 19.1539 16.0785 19.2 15.9625 19.2C15.8465 19.2 15.7352 19.1539 15.6531 19.0719C15.5711 18.9898 15.525 18.8785 15.525 18.7625V13.6875C15.525 13.446 15.721 13.25 15.9625 13.25Z" fill="#404040"/>
</svg>
