<svg width="21" height="19" viewBox="0 0 21 19" fill="none" xmlns="http://www.w3.org/2000/svg">
<path d="M10.3335 11.9632L9.39079 12.8011L10.3335 13.639L11.2761 12.8011L10.3335 11.9632ZM11.6668 1.29651C11.6668 0.982183 11.5263 0.680726 11.2763 0.458461C11.0262 0.236196 10.6871 0.111328 10.3335 0.111328C9.97983 0.111328 9.64069 0.236196 9.39065 0.458461C9.1406 0.680726 9.00012 0.982183 9.00012 1.29651H11.6668ZM2.72412 6.87518L9.39079 12.8011L11.2761 11.1253L4.60945 5.19933L2.72412 6.87518ZM11.2761 12.8011L17.9428 6.87518L16.0575 5.19933L9.39079 11.1253L11.2761 12.8011ZM11.6668 11.9632V1.29651H9.00012V11.9632H11.6668Z" fill="white"/>
<path d="M1 14.3335V15.5187C1 16.1473 1.28095 16.7503 1.78105 17.1948C2.28115 17.6393 2.95942 17.8891 3.66667 17.8891H17C17.7072 17.8891 18.3855 17.6393 18.8856 17.1948C19.3857 16.7503 19.6667 16.1473 19.6667 15.5187V14.3335" stroke="white" stroke-width="2"/>
</svg>
