<svg width="16" height="18" viewBox="0 0 16 18" fill="none" xmlns="http://www.w3.org/2000/svg">
<path d="M7.99997 2.20697L7.29297 1.49997L7.99997 0.792969L8.70697 1.49997L7.99997 2.20697ZM8.99997 11.207C8.99997 11.4722 8.89461 11.7265 8.70708 11.9141C8.51954 12.1016 8.26518 12.207 7.99997 12.207C7.73475 12.207 7.4804 12.1016 7.29286 11.9141C7.10533 11.7265 6.99997 11.4722 6.99997 11.207H8.99997ZM2.29297 6.49997L7.29297 1.49997L8.70697 2.91397L3.70697 7.91397L2.29297 6.49997ZM8.70697 1.49997L13.707 6.49997L12.293 7.91397L7.29297 2.91397L8.70697 1.49997ZM8.99997 2.20697V11.207H6.99997V2.20697H8.99997Z" fill="#404040"/>
<path fill-rule="evenodd" clip-rule="evenodd" d="M0 14.207V13.207H2V14.207C2 14.4722 2.10536 14.7266 2.29289 14.9141C2.48043 15.1017 2.73478 15.207 3 15.207H13C13.2652 15.207 13.5196 15.1017 13.7071 14.9141C13.8946 14.7266 14 14.4722 14 14.207V13.207H16V14.207C16 15.0027 15.6839 15.7657 15.1213 16.3284C14.5587 16.891 13.7957 17.207 13 17.207H3C2.20435 17.207 1.44129 16.891 0.87868 16.3284C0.31607 15.7657 0 15.0027 0 14.207Z" fill="#404040"/>
</svg>
