<?xml version="1.0" encoding="utf-8"?>
<!-- Generator: Adobe Illustrator 27.8.1, SVG Export Plug-In . SVG Version: 6.00 Build 0)  -->
<svg version="1.1" id="Layer_1" xmlns="http://www.w3.org/2000/svg" xmlns:xlink="http://www.w3.org/1999/xlink" x="0px" y="0px"
	 viewBox="0 0 50 50" style="enable-background:new 0 0 50 50;" xml:space="preserve">
<style type="text/css">
	.st0{fill:#404040;}
</style>
<g>
	<path class="st0" d="M43.8,12.4c0-0.4-0.2-0.8-0.4-1.1C40,7.9,36.5,4.4,33,1c-0.3-0.3-0.7-0.4-1.1-0.5c-1.1,0-2.2,0-3.3,0h-0.1
		c-0.3,0-0.7,0-1,0c-0.1,0-0.1,0-0.2,0l-8,0h-8.9c-2.5,0-4.2,1.8-4.2,4.2v40.5c0,2,1.1,3.5,3,4.1c0.1,0,0.2,0.1,0.3,0.1h31.1
		c0.3-0.1,0.5-0.2,0.8-0.3c1.6-0.7,2.5-2,2.5-3.7C43.9,34.4,43.8,23.4,43.8,12.4z M32.5,3.5C32.5,3.5,32.5,3.4,32.5,3.5
		C32.6,3.4,32.6,3.4,32.5,3.5c2.8,2.7,5.6,5.5,8.3,8.3h-1c-1.8,0-3.5,0-5.3,0c-1.3,0-2-0.7-2-2C32.5,7.7,32.5,5.6,32.5,3.5z
		 M42,45.2c0,1.5-0.9,2.4-2.4,2.4c-9.7,0-19.3,0-29,0c-1.7,0-2.5-0.8-2.5-2.5C8,31.7,8,18.3,8,4.8c0-1.5,0.9-2.4,2.4-2.4
		c6.6,0,13.1,0,19.7,0h0.6v4c0,1.2,0,2.4,0,3.5c0,2.2,1.6,3.8,3.8,3.8c2.5,0,4.9,0,7.5,0c0,0.2,0,0.4,0,0.6C42,24.6,42,34.9,42,45.2
		z"/>
	<path class="st0" d="M37.1,17.5c-4,0-8,0-12.1,0c-4.1,0-8.1,0-12.2,0c-0.7,0-1.1,0.3-1.1,1c0,0.6,0.4,0.9,1,0.9
		c8.1,0,16.2,0,24.3,0c0.2,0,0.4,0,0.5-0.1c0.5-0.2,0.7-0.6,0.5-1.1C38,17.7,37.7,17.5,37.1,17.5z"/>
	<path class="st0" d="M12.9,25c4.2,0,8.3,0,12.5,0c3.9,0,7.8,0,11.7,0c0.3,0,0.7-0.1,0.9-0.4c0.2-0.2,0.2-0.7,0.1-1
		c-0.1-0.4-0.5-0.5-0.9-0.5c-4,0-8,0-12.1,0c-4,0-8,0-12.1,0c-0.3,0-0.6,0-0.8,0.2c-0.4,0.2-0.5,0.7-0.4,1.1
		C12,24.8,12.4,25,12.9,25z"/>
	<path class="st0" d="M37.1,28.8c-4,0-8.1,0-12.1,0c-4,0-8.1,0-12.1,0c-0.7,0-1.1,0.3-1.1,1c0,0.6,0.4,0.9,1,0.9
		c8.1,0,16.2,0,24.3,0c0.2,0,0.4,0,0.5-0.1c0.5-0.2,0.7-0.6,0.5-1.1C38,29,37.7,28.8,37.1,28.8z"/>
	<path class="st0" d="M37.1,34.4c-4,0-8,0-12.1,0c-4,0-8,0-12.1,0c-0.7,0-1.1,0.3-1.1,1c0,0.6,0.4,0.9,1.1,0.9c8,0,16.1,0,24.1,0
		c0.7,0,1.1-0.4,1.1-1C38.2,34.8,37.8,34.4,37.1,34.4z"/>
	<path class="st0" d="M37.1,40.1c-4.1,0-8.3,0-12.4,0c-3.9,0-7.9,0-11.8,0c-0.8,0-1.3,0.5-1.1,1.2c0.1,0.6,0.6,0.7,1.1,0.7
		c4,0,8,0,12,0c4,0,8,0,12.1,0c0.3,0,0.7-0.1,0.9-0.3c0.2-0.2,0.2-0.7,0.1-1C38,40.2,37.6,40.1,37.1,40.1z"/>
</g>
</svg>
