<svg width="22" height="20" viewBox="0 0 22 20" fill="none" xmlns="http://www.w3.org/2000/svg">
<path d="M21.4085 0.887296C21.2952 0.622249 21.1069 0.396731 20.867 0.238926C20.6272 0.081121 20.3465 -0.00197066 20.0601 3.54876e-05H1.47549C1.18931 0.000587251 0.909432 0.0848187 0.669836 0.242506C0.43024 0.400194 0.241224 0.624559 0.125729 0.888369C0.010235 1.15218 -0.0267729 1.44409 0.0191974 1.72868C0.0651677 2.01327 0.19214 2.2783 0.384703 2.4916L0.391039 2.49905L7.54294 10.1918C7.57966 10.2313 7.60005 10.2835 7.59997 10.3376V18.5112C7.60008 18.7808 7.67281 19.0453 7.8104 19.2765C7.94799 19.5077 8.14528 19.6969 8.38124 19.824C8.6172 19.9511 8.88297 20.0114 9.15022 19.9982C9.41747 19.9851 9.67618 19.8992 9.89875 19.7496L13.2778 17.4803C13.4802 17.3443 13.6462 17.1599 13.7609 16.9437C13.8757 16.7275 13.9357 16.4861 13.9356 16.2409V10.3376C13.9355 10.2835 13.9559 10.2313 13.9926 10.1918L21.1509 2.4916C21.3456 2.27931 21.4739 2.01391 21.5197 1.72857C21.5655 1.44323 21.5269 1.15061 21.4085 0.887296ZM20.2195 1.62562L13.0676 9.31946C12.8105 9.59508 12.6677 9.95932 12.6685 10.3376V16.2409C12.6686 16.2761 12.6601 16.3107 12.6437 16.3417C12.6273 16.3727 12.6035 16.3991 12.5745 16.4186L9.1955 18.6878C9.16372 18.7092 9.12679 18.7215 9.08864 18.7233C9.05049 18.7252 9.01254 18.7167 8.97884 18.6985C8.94514 18.6804 8.91695 18.6534 8.89728 18.6204C8.8776 18.5875 8.86717 18.5497 8.8671 18.5112V10.3376C8.86741 9.9591 8.7247 9.59469 8.46795 9.3184L1.32027 1.62987C1.29365 1.59936 1.27626 1.5618 1.27015 1.52165C1.26404 1.48149 1.26947 1.44042 1.2858 1.40327C1.30212 1.36613 1.32866 1.33446 1.36227 1.31203C1.39589 1.2896 1.43518 1.27733 1.47549 1.27667H20.0601C20.1013 1.2752 20.142 1.28657 20.1766 1.30922C20.2111 1.33187 20.2379 1.36471 20.2533 1.40327C20.2708 1.4394 20.2769 1.48003 20.2708 1.51975C20.2648 1.55947 20.2469 1.59639 20.2195 1.62562Z" fill="#404040"/>
</svg>
