<svg width="8" height="14" viewBox="0 0 8 14" fill="none" xmlns="http://www.w3.org/2000/svg">
<path d="M0.305919 0.301873C0.110039 0.49522 9.03214e-09 0.75742 1.22923e-08 1.03081C1.55525e-08 1.30421 0.110039 1.56641 0.305919 1.75975L5.47795 6.86337L0.305919 11.967C0.115591 12.1614 0.0102755 12.4219 0.0126559 12.6922C0.0150367 12.9625 0.124922 13.2211 0.318647 13.4123C0.512371 13.6035 0.774434 13.7119 1.04839 13.7142C1.32235 13.7166 1.58628 13.6127 1.78334 13.4249L7.69408 7.59231C7.88996 7.39896 8 7.13676 8 6.86337C8 6.58998 7.88996 6.32778 7.69408 6.13443L1.78334 0.301873C1.5874 0.108584 1.32169 7.96381e-08 1.04463 8.2942e-08C0.767573 8.62458e-08 0.501858 0.108584 0.305919 0.301873Z" fill="#404040"/>
</svg>
