<svg width="17" height="20" viewBox="0 0 17 20" fill="none" xmlns="http://www.w3.org/2000/svg">
<path d="M15.6241 14.3853L14.3087 12.5245C14.1163 12.2358 14.02 11.9151 14.02 11.5941V6.91025C14.02 3.60594 11.5177 0.910979 8.27737 0.750631C6.60919 0.654307 5.03707 1.264 3.85001 2.41881C2.6309 3.5739 1.98917 5.1137 1.98917 6.78188V11.6263C1.98917 11.9793 1.89284 12.3001 1.70046 12.5567L0.385025 14.4176C0.128339 14.7706 0 15.1876 0 15.6046C0 16.7274 0.930385 17.6579 2.05323 17.6579H13.9876C15.1103 17.6579 16.0408 16.7275 16.0408 15.6046C16.009 15.1553 15.8807 14.7383 15.624 14.3853L15.6241 14.3853Z" fill="#404040"/>
<path d="M10.0105 18.396H5.9681C5.51903 18.396 5.16602 18.749 5.16602 19.1981C5.16602 19.6471 5.51902 20.0002 5.9681 20.0002H9.97843C10.4275 20.0002 10.7805 19.6472 10.7805 19.1981C10.7805 18.7487 10.4275 18.396 10.0105 18.396Z" fill="#404040"/>
<circle cx="13.3332" cy="2.96295" r="2.96295" fill="#FF3D00"/>
</svg>
