<svg width="8" height="14" viewBox="0 0 8 14" fill="none" xmlns="http://www.w3.org/2000/svg">
<path d="M7.69408 13.6981C7.88996 13.5048 8 13.2426 8 12.9692C8 12.6958 7.88996 12.4336 7.69408 12.2402L2.52205 7.13663L7.69408 2.03302C7.88441 1.83856 7.98972 1.57812 7.98734 1.30779C7.98496 1.03745 7.87508 0.778854 7.68135 0.587693C7.48763 0.396531 7.22557 0.288099 6.95161 0.28575C6.67765 0.283402 6.41372 0.387323 6.21666 0.575134L0.305919 6.40769C0.110039 6.60104 8.5105e-08 6.86324 8.18449e-08 7.13663C7.85847e-08 7.41002 0.110039 7.67222 0.305919 7.86557L6.21666 13.6981C6.4126 13.8914 6.67831 14 6.95537 14C7.23243 14 7.49814 13.8914 7.69408 13.6981Z" fill="#404040"/>
</svg>
