<svg width="18" height="20" viewBox="0 0 18 20" fill="none" xmlns="http://www.w3.org/2000/svg">
<path fill-rule="evenodd" clip-rule="evenodd" d="M4.46338 4.5083H13.5366C14.4485 4.50829 15.1833 4.50828 15.7612 4.58602C16.3612 4.66674 16.8662 4.83944 17.2676 5.24075C17.6689 5.64206 17.8416 6.14708 17.9223 6.74714C18 7.32501 18 8.05982 18 8.97171V10.0413C18 10.4846 18.0001 10.8664 17.9589 11.1722C17.9148 11.5 17.8154 11.814 17.5606 12.0689C17.3057 12.3237 16.9917 12.4231 16.6639 12.4672C16.3581 12.5083 15.9763 12.5083 15.533 12.5083L15 12.5083V11.5083H15.5C15.9857 11.5083 16.2994 11.5072 16.5306 11.4761C16.7473 11.447 16.8153 11.3999 16.8535 11.3617C16.8916 11.3236 16.9387 11.2556 16.9678 11.0389C16.9989 10.8077 17 10.494 17 10.0083V9.0083C17 8.05115 16.9989 7.38388 16.9312 6.88046C16.8654 6.39153 16.7451 6.13254 16.5605 5.94785C16.3758 5.76317 16.1168 5.64286 15.6278 5.57709C15.1244 5.50936 14.4572 5.5083 13.5 5.5083H4.50001C3.54286 5.5083 2.87558 5.50936 2.37217 5.57709C1.88323 5.64286 1.62425 5.76317 1.43956 5.94785C1.25487 6.13254 1.13457 6.39153 1.06879 6.88046C1.00107 7.38388 1.00001 8.05115 1.00001 9.0083V11.0083C1.00001 11.2579 1.00106 11.3951 1.01383 11.4904C1.01399 11.4916 1.01416 11.4928 1.01432 11.494C1.01548 11.4942 1.01667 11.4943 1.01789 11.4945C1.11323 11.5072 1.25045 11.5083 1.50001 11.5083H3.00001V12.5083H1.50001C1.49097 12.5083 1.48194 12.5083 1.47292 12.5083C1.26097 12.5083 1.05505 12.5084 0.885127 12.4856C0.693769 12.46 0.475457 12.3976 0.293662 12.2171L0.291241 12.2147C0.110683 12.0329 0.0483142 11.8145 0.0226827 11.6232C-7.77394e-05 11.4533 -3.77445e-05 11.2473 3.50194e-06 11.0354C5.23047e-06 11.0264 6.95901e-06 11.0173 6.95901e-06 11.0083L6.60138e-06 8.97168C-7.16729e-06 8.0598 -1.83135e-05 7.32501 0.0777208 6.74714C0.158446 6.14708 0.331142 5.64206 0.732454 5.24075C1.13376 4.83944 1.63878 4.66674 2.23884 4.58602C2.81671 4.50828 3.5515 4.50829 4.46338 4.5083Z" fill="#404040"/>
<path fill-rule="evenodd" clip-rule="evenodd" d="M4.46943 8.54046C4.25274 8.56961 4.18476 8.61667 4.14657 8.65486C4.10838 8.69305 4.06133 8.76103 4.03218 8.97772C4.00108 9.20888 4.00002 9.52266 4.00002 10.0083V18.3143C4.00002 18.3141 4.00002 18.3145 4.00002 18.3143L6.15106 17.5976C6.25169 17.5571 6.35813 17.5327 6.46646 17.5254L6.51609 17.5221L6.56542 17.5286C6.67158 17.5426 6.77489 17.5729 6.8717 17.6185L8.99979 18.4701L11.1283 17.6185C11.226 17.5725 11.3303 17.5421 11.4375 17.5284L11.4869 17.522L11.5366 17.5256C11.6438 17.5332 11.7491 17.5575 11.8487 17.5975L14 18.3149C14 18.3147 14 18.3151 14 18.3149V10.0083C14 9.52265 13.999 9.20888 13.9679 8.97772C13.9387 8.76103 13.8917 8.69305 13.8535 8.65486C13.8153 8.61667 13.7473 8.56961 13.5306 8.54046C13.2994 8.50937 12.9857 8.5083 12.5 8.5083H5.50002C5.01437 8.5083 4.70059 8.50937 4.46943 8.54046ZM13.9913 18.6133C13.9913 18.6133 13.9914 18.6129 13.9916 18.6121L13.9913 18.6133ZM3.71422 18.401C3.71422 18.401 3.71465 18.401 3.71546 18.4009L3.71422 18.401ZM5.46707 7.5083C5.47802 7.5083 5.489 7.5083 5.50002 7.5083L12.533 7.5083C12.9763 7.50828 13.3581 7.50826 13.6639 7.54939C13.9917 7.59349 14.3058 7.69294 14.5606 7.94775C14.8154 8.20256 14.9148 8.51658 14.9589 8.84439C15.0001 9.15018 15 9.53205 15 9.97535L15 18.3143C15 18.3225 15 18.3308 15 18.3391C15.0001 18.4753 15.0002 18.627 14.9817 18.7527C14.9603 18.8982 14.9002 19.1172 14.6885 19.2698C14.4767 19.4226 14.2498 19.4104 14.1051 19.3847C13.98 19.3625 13.8362 19.3145 13.7074 19.2715C13.6995 19.2689 13.6917 19.2662 13.6839 19.2636L11.5158 18.5406L9.38941 19.3915C9.28316 19.4422 9.16893 19.4745 9.05167 19.4866L9.00002 19.492L8.94837 19.4866C8.8311 19.4745 8.71687 19.4422 8.61062 19.3915L6.48438 18.5406L4.3162 19.2636C4.30841 19.2662 4.3005 19.2689 4.2926 19.2715C4.16379 19.3145 4.02001 19.3625 3.89493 19.3847C3.75028 19.4104 3.52335 19.4226 3.31156 19.2698C3.09986 19.1172 3.03969 18.8982 3.01833 18.7527C2.99986 18.627 2.99994 18.4753 3.00001 18.3391C3.00001 18.3308 3.00002 18.3225 3.00002 18.3143V10.0083C3.00002 9.99728 3.00002 9.9863 3.00002 9.97536C2.99999 9.53205 2.99997 9.15018 3.04111 8.84439C3.08521 8.51658 3.18465 8.20256 3.43946 7.94775C3.69428 7.69294 4.00829 7.59349 4.3361 7.54939C4.64189 7.50826 5.02376 7.50828 5.46707 7.5083Z" fill="#404040"/>
<path fill-rule="evenodd" clip-rule="evenodd" d="M6 12.0083C6 11.7322 6.22386 11.5083 6.5 11.5083H10.5C10.7761 11.5083 11 11.7322 11 12.0083C11 12.2844 10.7761 12.5083 10.5 12.5083H6.5C6.22386 12.5083 6 12.2844 6 12.0083ZM6 15.0083C6 14.7322 6.22386 14.5083 6.5 14.5083H11.5C11.7761 14.5083 12 14.7322 12 15.0083C12 15.2844 11.7761 15.5083 11.5 15.5083H6.5C6.22386 15.5083 6 15.2844 6 15.0083Z" fill="#404040"/>
<path fill-rule="evenodd" clip-rule="evenodd" d="M7.06388 0.508301H10.9361C11.7539 0.508286 12.4182 0.508274 12.9418 0.57863C13.4874 0.651943 13.9546 0.809803 14.3266 1.18175C14.6985 1.55369 14.8564 2.02087 14.9297 2.56646C15 3.09007 15 3.75439 15 4.57219V5.0083H14V4.6083C14 3.74568 13.9989 3.14885 13.9386 2.69964C13.8801 2.26474 13.7745 2.04391 13.6194 1.88886C13.4644 1.7338 13.2436 1.62816 12.8087 1.56972C12.3595 1.50936 11.7626 1.5083 10.9 1.5083H7.1C6.23738 1.5083 5.64055 1.50936 5.19134 1.56972C4.75644 1.62816 4.53561 1.7338 4.38055 1.88886C4.2255 2.04391 4.11986 2.26474 4.06142 2.69964C4.00106 3.14885 4 3.74568 4 4.6083V5.0083H3L3 4.57218C2.99999 3.75439 2.99997 3.09007 3.07033 2.56646C3.14364 2.02087 3.3015 1.55369 3.67345 1.18175C4.04539 0.809803 4.51256 0.651943 5.05816 0.57863C5.58177 0.508274 6.24609 0.508286 7.06388 0.508301Z" fill="#404040"/>
</svg>
