<?xml version="1.0" encoding="utf-8"?>
<!-- Generator: Adobe Illustrator 27.8.1, SVG Export Plug-In . SVG Version: 6.00 Build 0)  -->
<svg version="1.1" id="Layer_1" xmlns="http://www.w3.org/2000/svg" xmlns:xlink="http://www.w3.org/1999/xlink" x="0px" y="0px"
	 viewBox="0 0 50 50" style="enable-background:new 0 0 50 50;" xml:space="preserve">
<style type="text/css">
	.st0{fill:#404040;}
</style>
<g>
	<path class="st0" d="M6.1,24.5c0-6.2,0-12.3,0-18.5c0-3.3,2.2-5.5,5.5-5.5c10,0,20,0,30,0c1.6,0,2.4,0.8,2.4,2.4
		c0,11.5,0,22.9,0,34.4c0,0.5-0.2,1-0.4,1.5c-0.3,0.6-0.7,1.2-1,1.8c-0.8,1.5-0.8,3.1,0,4.6c0.4,0.7,0.8,1.3,1.1,2
		c0.7,1.2,0,2.4-1.4,2.4c-10,0-20,0-30,0c-3.4,0-6.2-2.8-6.2-6.3C6,37,6.1,30.8,6.1,24.5z M7.7,38.2c1.6-1.6,3.4-2.1,5.5-2.1
		c9.3,0,18.7,0,28,0c0.4,0,0.7,0,1.1,0c0-0.3,0-0.5,0-0.7c0-10.8,0-21.6,0-32.4c0-0.8-0.1-0.9-1-0.9c-10,0-19.9,0-29.9,0
		c-0.6,0-1.2,0.1-1.7,0.4c-1.5,0.7-2.1,2-2.1,3.6c0,10.5,0,20.9,0,31.4C7.7,37.7,7.7,37.8,7.7,38.2z M42.4,37.8c-0.4,0-0.6,0-0.8,0
		c-9.7,0-19.4,0-29.1,0c-0.5,0-1,0.1-1.5,0.2c-2.3,0.7-3.7,3-3.3,5.7c0.4,2.5,2.3,4.2,4.8,4.3c9.7,0,19.4,0,29.2,0
		c0.1,0,0.3,0,0.6-0.1C39.7,44.5,39.7,41.2,42.4,37.8z"/>
	<path class="st0" d="M24.9,39.9c3.9,0,7.8,0,11.6,0c0.2,0,0.5-0.1,0.6,0c0.3,0.2,0.6,0.5,0.6,0.8c0,0.2-0.4,0.5-0.7,0.7
		c-0.2,0.1-0.4,0-0.7,0c-7.7,0-15.4,0-23.1,0c-1,0-1.4-0.2-1.4-0.8c0-0.6,0.4-0.8,1.4-0.8C17.2,39.9,21.1,39.9,24.9,39.9z"/>
	<path class="st0" d="M24.9,45.7c-3.9,0-7.8,0-11.6,0c-0.2,0-0.6,0.1-0.7-0.1c-0.3-0.2-0.6-0.5-0.5-0.8c0-0.3,0.4-0.5,0.7-0.7
		c0.2-0.1,0.4,0,0.7,0c7.7,0,15.5,0,23.2,0c0.1,0,0.2,0,0.3,0c0.6,0,1,0.2,1,0.8c0,0.5-0.4,0.8-1,0.8c-0.8,0-1.7,0-2.5,0
		C31.1,45.7,28,45.7,24.9,45.7z"/>
</g>
</svg>
