<svg width="55" height="30" viewBox="0 0 55 30" fill="none" xmlns="http://www.w3.org/2000/svg">
<path d="M0 5C0 2.23858 2.23858 0 5 0H50C52.7614 0 55 2.23858 55 5V25C55 27.7614 52.7614 30 50 30H5C2.23857 30 0 27.7614 0 25V5Z" fill="#634AF9"/>
<path d="M22.6733 13.8076C22.6733 14.5452 22.6733 15.2669 22.6733 16.0106C22.7618 16.0106 22.841 16.0106 22.9188 16.0106C23.7626 16.0154 24.609 15.9886 25.4514 16.0337C27.6004 16.1459 29.398 17.5601 29.8742 19.4741C30.4161 21.6551 29.1069 23.8995 26.7969 24.631C23.4594 25.6867 20.6906 23.5594 20.2963 21.2284C20.2466 20.9346 20.2399 20.6335 20.2359 20.336C20.2278 19.6484 20.2332 18.9608 20.2332 18.2562C19.4176 18.2562 18.6181 18.2562 17.7864 18.2562C17.7864 18.3964 17.7878 18.5402 17.7864 18.6841C17.7757 19.4509 17.8146 20.2226 17.7448 20.9846C17.5771 22.8145 15.9607 24.4164 13.9526 24.8029C11.5661 25.2625 9.18908 24.1043 8.32385 22.0599C7.23593 19.4899 8.99859 16.5994 11.9726 16.0898C12.3187 16.0301 12.6782 16.0191 13.0323 16.0142C13.7889 16.0032 14.5468 16.0106 15.3195 16.0106C15.3195 15.2754 15.3195 14.5488 15.3195 13.7979C15.235 13.7979 15.1572 13.7979 15.0794 13.7979C14.2222 13.7918 13.3623 13.8174 12.5065 13.771C10.3588 13.6552 8.52909 12.1825 8.10251 10.2673C7.63971 8.19232 8.82286 6.0747 10.9732 5.27252C14.2705 4.04242 17.3598 6.12225 17.7314 8.70313C17.8012 9.18956 17.777 9.68819 17.7851 10.1807C17.7931 10.6367 17.7864 11.0926 17.7864 11.5632C18.598 11.5632 19.3988 11.5632 20.2332 11.5632C20.2332 11.5035 20.2332 11.4401 20.2332 11.3755C20.2345 10.6623 20.2265 9.9503 20.2386 9.23711C20.2761 7.02928 22.1381 5.18352 24.5553 4.95067C26.9337 4.72148 29.1431 6.01253 29.783 8.06431C30.7528 11.1743 28.2859 13.3748 26.0712 13.7101C25.7224 13.7625 25.3656 13.7869 25.0114 13.793C24.3085 13.8052 23.6043 13.7966 22.9 13.7966C22.8289 13.7979 22.7565 13.8039 22.6733 13.8076ZM22.6612 11.5656C22.7256 11.5705 22.7712 11.5766 22.8155 11.5766C23.6056 11.5766 24.3971 11.579 25.1872 11.573C25.3468 11.5717 25.5091 11.5547 25.6647 11.5217C26.8546 11.2743 27.6782 10.2246 27.5387 9.14568C27.3871 7.97654 26.3569 7.13168 25.096 7.14022C23.8417 7.14997 22.7994 7.97776 22.6961 9.11276C22.6331 9.81497 22.6693 10.5245 22.6612 11.2304C22.6599 11.3401 22.6612 11.4486 22.6612 11.5656ZM22.6813 18.2379C22.6733 18.2891 22.6666 18.3123 22.6666 18.3367C22.6653 19.0559 22.6612 19.774 22.6653 20.4933C22.6666 20.6384 22.684 20.7859 22.7189 20.9273C22.9845 22.0184 24.0496 22.7279 25.3119 22.6584C26.53 22.5914 27.5186 21.6514 27.5521 20.5286C27.587 19.3912 26.64 18.3671 25.4246 18.2696C24.8585 18.2245 24.2871 18.2452 23.7169 18.2391C23.3776 18.2342 23.0368 18.2379 22.6813 18.2379ZM15.3342 18.2501C14.4301 18.2501 13.5568 18.2062 12.6916 18.2598C11.3837 18.3403 10.4702 19.29 10.4661 20.4872C10.4621 21.549 11.3931 22.5207 12.5373 22.6475C13.805 22.7889 14.9653 22.1001 15.2551 21.0297C15.2994 20.8651 15.3302 20.6944 15.3316 20.525C15.3396 19.7716 15.3342 19.0169 15.3342 18.2501ZM15.3275 11.5766C15.3275 10.761 15.3342 9.9759 15.3222 9.19078C15.3195 9.01767 15.2725 8.83968 15.2135 8.67387C14.8527 7.64859 13.7889 7.04147 12.5695 7.15607C11.5165 7.25603 10.6056 8.10698 10.4769 9.11276C10.3253 10.2892 11.2147 11.3767 12.5078 11.54C13.0082 11.6034 13.5233 11.5705 14.0317 11.5766C14.461 11.5803 14.8875 11.5766 15.3275 11.5766ZM20.2211 13.8137C19.3988 13.8137 18.6007 13.8137 17.7985 13.8137C17.7985 14.5513 17.7985 15.2718 17.7985 15.9996C18.6101 15.9996 19.4096 15.9996 20.2211 15.9996C20.2211 15.2681 20.2211 14.5476 20.2211 13.8137Z" fill="white"/>
<path d="M37.2691 22C37.1225 22 37.0025 21.9533 36.9091 21.86C36.8158 21.7533 36.7691 21.6333 36.7691 21.5V8.5C36.7691 8.35333 36.8158 8.23333 36.9091 8.14C37.0025 8.04667 37.1225 8 37.2691 8H39.7891C39.9358 8 40.0558 8.04667 40.1491 8.14C40.2425 8.23333 40.2891 8.35333 40.2891 8.5V12.94L43.9891 8.38C44.0425 8.3 44.1291 8.22 44.2491 8.14C44.3825 8.04667 44.5558 8 44.7691 8H47.6491C47.7691 8 47.8691 8.04667 47.9491 8.14C48.0291 8.22 48.0691 8.31333 48.0691 8.42C48.0691 8.51333 48.0491 8.59333 48.0091 8.66L43.2091 14.7L48.3691 21.34C48.4225 21.3933 48.4491 21.4733 48.4491 21.58C48.4491 21.6867 48.4091 21.7867 48.3291 21.88C48.2491 21.96 48.1491 22 48.0291 22H45.0491C44.8091 22 44.6225 21.9467 44.4891 21.84C44.3691 21.7333 44.2891 21.6533 44.2491 21.6L40.2891 16.66V21.5C40.2891 21.6333 40.2425 21.7533 40.1491 21.86C40.0558 21.9533 39.9358 22 39.7891 22H37.2691Z" fill="white"/>
</svg>
