<svg width="89" height="70" viewBox="0 0 89 70" fill="none" xmlns="http://www.w3.org/2000/svg">
<path d="M77.6312 9.22887H83.4386C84.6078 9.19856 85.7418 9.63201 86.5954 10.4355C87.449 11.2389 87.9536 12.3478 88 13.5222V64.5278C88 65.7139 87.5312 66.8514 86.6966 67.6901C85.862 68.5288 84.7301 69 83.5499 69H5.45013C4.26988 69 3.13797 68.5288 2.30341 67.6901C1.46885 66.8514 1 65.7139 1 64.5278V13.5222C1.04491 12.3864 1.51845 11.3105 2.32439 10.513C3.13033 9.71555 4.20817 9.25639 5.33887 9.22887H11.124V5.36041C11.1522 4.21288 11.6184 3.12019 12.4261 2.30852C13.2338 1.49685 14.3211 1.02835 15.4629 1H73.3146C74.4639 1.03461 75.5552 1.51494 76.3599 2.34031C77.1646 3.16568 77.6202 4.27203 77.6312 5.42749V9.22887ZM77.6312 9.22887H11.1463M69.1982 32.8422C69.17 33.9897 68.7038 35.0824 67.8962 35.8941C67.0885 36.7057 66.0012 37.1742 64.8593 37.2026H23.9182C22.7569 37.2029 21.6416 36.7471 20.8101 35.9325C19.9787 35.1178 19.4971 34.0088 19.468 32.8422V27.1177C19.4971 25.9511 19.9787 24.8421 20.8101 24.0274C21.6416 23.2128 22.7569 22.757 23.9182 22.7573H64.8593C66.0012 22.7857 67.0885 23.2542 67.8962 24.0658C68.7038 24.8775 69.17 25.9702 69.1982 27.1177V32.8422Z" stroke="#C0C0C0" stroke-width="1.5" stroke-miterlimit="10"/>
</svg>
