<svg width="21" height="19" viewBox="0 0 21 19" fill="none" xmlns="http://www.w3.org/2000/svg">
<path d="M10.3335 11.9622L9.39079 12.8001L10.3335 13.6381L11.2761 12.8001L10.3335 11.9622ZM11.6668 1.29554C11.6668 0.981206 11.5263 0.67975 11.2763 0.457484C11.0262 0.235219 10.6871 0.110352 10.3335 0.110352C9.97983 0.110352 9.64069 0.235219 9.39065 0.457484C9.1406 0.67975 9.00012 0.981206 9.00012 1.29554H11.6668ZM2.72412 6.8742L9.39079 12.8001L11.2761 11.1243L4.60945 5.19835L2.72412 6.8742ZM11.2761 12.8001L17.9428 6.8742L16.0575 5.19835L9.39079 11.1243L11.2761 12.8001ZM11.6668 11.9622V1.29554H9.00012V11.9622H11.6668Z" fill="white"/>
<path d="M1 14.333V15.5182C1 16.1469 1.28095 16.7498 1.78105 17.1943C2.28115 17.6388 2.95942 17.8886 3.66667 17.8886H17C17.7072 17.8886 18.3855 17.6388 18.8856 17.1943C19.3857 16.7498 19.6667 16.1469 19.6667 15.5182V14.333" stroke="white" stroke-width="2"/>
</svg>
