<svg width="30" height="30" viewBox="0 0 30 30" fill="none" xmlns="http://www.w3.org/2000/svg">
<circle cx="15" cy="15" r="15" fill="#EBEBEB"/>
<path fill-rule="evenodd" clip-rule="evenodd" d="M19.7402 10.0962C19.4958 9.89257 19.1841 9.78734 18.8661 9.80122C18.5456 9.81521 18.242 9.94921 18.0157 10.1766C18.0157 10.1766 18.0157 10.1766 18.0157 10.1766L10.5541 17.676L9.95221 20.0496L12.3684 19.4456L19.1464 12.6677L18.636 12.1573C18.4798 12.0011 18.4798 11.7478 18.636 11.5916C18.7922 11.4354 19.0454 11.4354 19.2017 11.5916L19.712 12.102L19.8258 11.9882C19.945 11.8691 20.0395 11.7277 20.104 11.572C20.1684 11.4164 20.2016 11.2496 20.2016 11.0812C20.2016 10.9127 20.1684 10.7459 20.104 10.5903C20.0405 10.4372 19.948 10.2978 19.8316 10.1799L19.7402 10.0962ZM19.9949 12.9505L12.8558 20.0896C12.8045 20.1409 12.7403 20.1772 12.67 20.1948L9.49702 20.988C9.36048 21.0222 9.21605 20.982 9.11669 20.8824C9.01734 20.7827 8.97769 20.6381 9.01228 20.5017L9.80551 17.3732C9.82313 17.3037 9.85911 17.2402 9.90969 17.1893L17.4486 9.61238C17.8165 9.24262 18.3101 9.02472 18.8313 9.00198C19.3524 8.97923 19.8631 9.15328 20.2618 9.48957C20.266 9.49312 20.2702 9.49677 20.2742 9.50049L20.379 9.59647C20.3832 9.60037 20.3874 9.60437 20.3915 9.60845C20.5849 9.80183 20.7384 10.0314 20.843 10.2841C20.9477 10.5368 21.0016 10.8077 21.0016 11.0812C21.0016 11.3547 20.9477 11.6256 20.843 11.8782C20.7384 12.1309 20.5849 12.3605 20.3915 12.5539C20.3915 12.5539 20.3915 12.5539 20.3915 12.5539L19.9949 12.9505Z" fill="#404040"/>
</svg>
