<svg width="14" height="14" viewBox="0 0 14 14" fill="none" xmlns="http://www.w3.org/2000/svg">
<path fill-rule="evenodd" clip-rule="evenodd" d="M6.22227 12.4443C6.22227 12.8565 6.38641 13.2525 6.67801 13.5441C6.96963 13.8357 7.36563 13.9998 7.77781 13.9998H12.4443C12.8565 13.9998 13.2525 13.8357 13.5441 13.5441C13.8358 13.2525 13.9999 12.8565 13.9999 12.4443V9.33318C13.9999 8.921 13.8357 8.52498 13.5441 8.23338C13.2525 7.94178 12.8565 7.77765 12.4443 7.77765H7.77781C7.36563 7.77765 6.96961 7.94178 6.67801 8.23338C6.38639 8.525 6.22227 8.921 6.22227 9.33318V12.4443ZM3.11112 7.7778H1.55554C1.1432 7.7778 0.74734 7.94194 0.455736 8.23354C0.163962 8.52516 0 8.92116 0 9.33333V12.4445C0 12.8566 0.163982 13.2527 0.455736 13.5443C0.747356 13.8359 1.1432 14 1.55554 14H3.11112C3.5233 14 3.91916 13.8359 4.21092 13.5443C4.50254 13.2526 4.66665 12.8566 4.66665 12.4445V9.33333C4.66665 8.92116 4.50252 8.52514 4.21092 8.23354C3.91914 7.94192 3.5233 7.7778 3.11112 7.7778ZM14 1.55553C14 1.14319 13.8358 0.747335 13.5442 0.455732C13.2526 0.16396 12.8566 0 12.4444 0H1.55558C1.14324 0 0.747379 0.16398 0.455775 0.455732C0.164001 0.747351 3.96957e-05 1.14319 3.96957e-05 1.55553V4.66667C3.96957e-05 5.07884 0.164021 5.4747 0.455775 5.76646C0.747395 6.05808 1.14324 6.2222 1.55558 6.2222H12.4444C13.3039 6.2222 14 5.5261 14 4.66663L14 1.55553Z" fill="#634AF9"/>
</svg>
