<svg width="17" height="16" viewBox="0 0 17 16" fill="none" xmlns="http://www.w3.org/2000/svg">
<path fill-rule="evenodd" clip-rule="evenodd" d="M14.419 16H3.05858C2.2474 16 1.46943 15.6778 0.895839 15.1042C0.322243 14.5306 0 13.7526 0 12.9414V1.53115C0 0.598716 0.922819 0.00709829 1.73465 0.288488C1.85088 0.328687 1.96449 0.387237 2.07285 0.465012L2.22578 0.574247C2.59775 0.838183 3.04275 0.979599 3.49885 0.978816C3.95494 0.978033 4.39945 0.835089 4.77052 0.569878C5.29138 0.19919 5.9148 0 6.55411 0C7.19342 0 7.81684 0.19919 8.3377 0.569878C8.70877 0.835089 9.15328 0.978033 9.60937 0.978816C10.0655 0.979599 10.5105 0.838183 10.8824 0.574247L11.0354 0.465012C11.9031 -0.155444 13.1082 0.465012 13.1082 1.53115V8.13507H16.1668C16.3406 8.13507 16.5073 8.20412 16.6303 8.32703C16.7532 8.44995 16.8222 8.61665 16.8222 8.79048V13.5968C16.8222 14.2342 16.569 14.8454 16.1183 15.2961C15.6677 15.7468 15.0564 16 14.419 16ZM13.3267 9.44589V13.5968C13.3267 13.8865 13.4418 14.1644 13.6466 14.3692C13.8515 14.5741 14.1293 14.6892 14.419 14.6892C14.7088 14.6892 14.9866 14.5741 15.1915 14.3692C15.3963 14.1644 15.5114 13.8865 15.5114 13.5968V9.44589H13.3267ZM9.61269 5.7319C9.61269 5.55807 9.54364 5.39136 9.42073 5.26845C9.29782 5.14554 9.13111 5.07648 8.95728 5.07648H3.714C3.54017 5.07648 3.37346 5.14554 3.25055 5.26845C3.12764 5.39136 3.05858 5.55807 3.05858 5.7319C3.05858 5.90572 3.12764 6.07243 3.25055 6.19534C3.37346 6.31825 3.54017 6.38731 3.714 6.38731H8.95728C9.13111 6.38731 9.29782 6.31825 9.42073 6.19534C9.54364 6.07243 9.61269 5.90572 9.61269 5.7319ZM8.73881 8.35354C8.73881 8.17971 8.66976 8.01301 8.54685 7.89009C8.42393 7.76718 8.25723 7.69813 8.0834 7.69813H3.714C3.54017 7.69813 3.37346 7.76718 3.25055 7.89009C3.12764 8.01301 3.05858 8.17971 3.05858 8.35354C3.05858 8.52736 3.12764 8.69407 3.25055 8.81698C3.37346 8.9399 3.54017 9.00895 3.714 9.00895H8.0834C8.25723 9.00895 8.42393 8.9399 8.54685 8.81698C8.66976 8.69407 8.73881 8.52736 8.73881 8.35354ZM8.95728 10.3198C9.13111 10.3198 9.29782 10.3888 9.42073 10.5117C9.54364 10.6347 9.61269 10.8014 9.61269 10.9752C9.61269 11.149 9.54364 11.3157 9.42073 11.4386C9.29782 11.5615 9.13111 11.6306 8.95728 11.6306H3.714C3.54017 11.6306 3.37346 11.5615 3.25055 11.4386C3.12764 11.3157 3.05858 11.149 3.05858 10.9752C3.05858 10.8014 3.12764 10.6347 3.25055 10.5117C3.37346 10.3888 3.54017 10.3198 3.714 10.3198H8.95728Z" fill="#634AF9"/>
</svg>
