<svg width="33" height="30" viewBox="0 0 33 30" fill="none" xmlns="http://www.w3.org/2000/svg">
<path d="M30.0093 25.3838C23.5891 25.3838 17.1582 25.3838 10.738 25.3838C10.6637 25.3838 10.5894 25.3944 10.4939 25.3944V25.6491C10.4939 26.1585 10.5045 26.6678 10.4833 27.1772C10.4515 28.1111 9.75108 28.8645 8.81723 29.0025C7.91521 29.1404 7.02381 28.5886 6.72667 27.7078C6.67361 27.5592 6.65239 27.3895 6.60994 27.1878C6.69484 27.2303 6.71606 27.2409 6.7479 27.2621C7.22543 27.5805 7.73481 27.6123 8.23357 27.3364C8.74294 27.0605 8.98702 26.6042 8.97641 26.0311C8.97641 25.7128 8.97641 25.3838 8.97641 25.0654C8.97641 24.2589 9.35844 23.8769 10.1649 23.8769C13.5608 23.8769 16.946 23.8769 20.3418 23.8769V23.8875H24.6715C25.2445 23.8875 25.8176 23.8875 26.3906 23.8875C26.4119 23.8875 26.4331 23.8875 26.4543 23.8875H26.6135V23.8238V23.5585V22.752V18.4011C24.3213 18.5072 22.305 17.8493 20.6283 16.3C18.9516 14.7506 18.0921 12.8086 18.0496 10.5271C18.0178 8.50018 18.6757 6.68553 20.0128 5.16802C21.7108 3.22603 23.8862 2.35585 26.4755 2.41953C26.4649 2.36647 26.4543 2.32402 26.4437 2.28157C26.3906 2.14362 26.3482 2.01627 26.2739 1.88893C25.5947 0.626105 24.5654 0.010612 23.154 0C16.755 0 10.356 4.03233e-08 3.94634 0.010612C3.5537 0.010612 3.13983 0.0848957 2.77902 0.244075C1.5162 0.785285 0.826425 1.76158 0.805201 3.15175C0.773365 5.16802 0.794589 7.17368 0.794589 9.18995C0.794589 9.24301 0.794589 9.28546 0.805201 9.33852C0.847649 9.65688 1.08111 9.92218 1.37825 9.98585C1.71783 10.0495 2.0468 9.92218 2.18476 9.60382C2.25904 9.45525 2.28026 9.27485 2.28026 9.10506C2.29087 7.15246 2.28026 5.18925 2.28026 3.23665C2.28026 2.46197 2.71535 1.82526 3.39452 1.59179C4.55122 1.18854 5.65486 2.02688 5.64425 3.30032C5.64425 11.1744 5.64425 19.0485 5.64425 26.9119C5.64425 27.485 5.78221 28.0156 6.07934 28.5037C6.663 29.4694 7.50135 30 8.65805 30C10.0588 30 11.449 30 12.8498 30C17.8056 30 22.7613 30 27.7171 30C29.1816 30 30.2322 28.9494 30.2322 27.4744C30.2322 26.8482 30.2215 26.2328 30.2322 25.6066C30.2534 25.4262 30.2003 25.3838 30.0093 25.3838ZM18.4529 22.1365C15.3966 22.1365 12.351 22.1365 9.30538 22.1365C8.84906 22.1365 8.55193 21.9349 8.45642 21.5635C8.3503 21.1178 8.64744 20.6827 9.10375 20.6296C9.16742 20.619 9.23109 20.6296 9.29477 20.6296C12.8179 20.6296 16.3517 20.6296 19.8749 20.6296H20.3312H21.403C21.6152 20.6296 21.7957 20.6721 21.9336 20.7676C21.9973 20.81 22.0609 20.8737 22.114 20.9374L22.1246 20.948C22.1777 21.0329 22.2201 21.1284 22.252 21.2451C22.2626 21.2876 22.2626 21.3406 22.2626 21.3937V21.4043C22.2626 21.4361 22.2626 21.4574 22.252 21.4892C22.2414 21.5317 22.2414 21.5635 22.2307 21.6059C22.1989 21.7333 22.1246 21.85 22.0397 21.9455C21.9018 22.0835 21.7108 22.1684 21.5091 22.1684H21.1377C21.1271 22.1684 21.1271 22.1684 21.1165 22.1684C20.8618 22.1684 20.5965 22.1684 20.3418 22.1684C20.1826 22.1684 20.0128 22.1684 19.8537 22.1684C19.3761 22.1259 18.9198 22.1365 18.4529 22.1365ZM20.0871 17.8175C20.2251 17.8175 20.363 17.8175 20.4904 17.8387C20.8618 17.8918 21.1271 18.2207 21.1271 18.5921C21.1165 18.9742 20.83 19.2925 20.4479 19.3244C20.31 19.335 20.172 19.335 20.0447 19.335C18.2937 19.335 16.5321 19.335 14.7811 19.335C12.9559 19.335 11.1306 19.335 9.30538 19.335C9.00824 19.335 8.75356 19.2713 8.57315 19.0166C8.27602 18.6134 8.45642 18.0297 8.93396 17.8705C9.0613 17.8281 9.20987 17.8175 9.35844 17.8175C12.9241 17.8175 16.5109 17.8175 20.0871 17.8175ZM10.4409 4.64804C10.6319 4.6162 10.6 4.51008 10.6 4.39335C10.6106 3.84153 11.0776 3.49133 11.5763 3.66112C11.8629 3.75663 12.0645 4.03254 12.0539 4.37213C12.0539 4.57375 12.1175 4.62681 12.3086 4.63742C12.8816 4.69048 13.4016 4.86028 13.8048 5.29537C14.0701 5.58189 14.1975 5.92147 14.1869 6.31411C14.1763 6.64308 13.964 6.90838 13.6669 7.00389C13.3698 7.08879 13.1045 6.98267 12.9134 6.69614C12.871 6.63247 12.8179 6.55819 12.8073 6.4839C12.7437 6.21861 12.5526 6.10187 12.3086 6.10187C11.7461 6.09126 11.1943 6.05943 10.6319 6.09126C10.2074 6.11249 9.89965 6.53696 9.93148 6.97205C9.96332 7.39653 10.3029 7.7255 10.738 7.74673C11.2368 7.75734 11.7461 7.7255 12.2343 7.78918C13.3485 7.92713 14.1763 8.89282 14.1869 10.0283C14.1975 11.1532 13.391 12.1295 12.2767 12.3099C12.1069 12.3417 12.0539 12.3842 12.0539 12.5646C12.0645 13.0209 11.7461 13.3498 11.3216 13.3498C10.8972 13.3498 10.6 13.0315 10.5894 12.5646C10.5894 12.5009 10.5788 12.4372 10.5788 12.3948C10.2286 12.2993 9.87842 12.225 9.56007 12.0976C8.98702 11.8642 8.56254 11.4821 8.46703 10.8348C8.42459 10.5695 8.48826 10.336 8.67927 10.145C8.98702 9.84789 9.33721 9.86912 9.60251 10.2087C9.64496 10.2618 9.69802 10.3254 9.72986 10.3891C9.91026 10.7817 10.2605 10.8879 10.6531 10.8985C11.0776 10.9091 11.5021 10.9091 11.9159 10.8985C12.3722 10.8879 12.7224 10.5271 12.733 10.0707C12.7437 9.62504 12.3935 9.24301 11.9265 9.2324C11.5551 9.22179 11.1837 9.2324 10.8123 9.2324C9.56006 9.22179 8.57315 8.33039 8.46703 7.08879C8.37153 5.88964 9.22048 4.84966 10.4409 4.64804ZM9.23109 15.0159C10.6319 15.0159 12.0327 15.0159 13.4334 15.0159C13.8473 15.0159 14.155 15.2706 14.2187 15.642C14.2824 16.0241 14.0808 16.3742 13.72 16.4804C13.6244 16.5122 13.5077 16.5228 13.4016 16.5228C12.7118 16.5228 12.0114 16.5228 11.3216 16.5228C10.6319 16.5228 9.93148 16.5228 9.24171 16.5228C8.76417 16.5228 8.42459 16.2151 8.42459 15.78C8.42459 15.3449 8.76417 15.0159 9.23109 15.0159Z" fill="#634AF9"/>
<path d="M26.0295 4.40384C22.7398 4.41445 20.0337 7.10989 20.0443 10.3996C20.0443 13.7105 22.7398 16.3953 26.0507 16.3953C29.3616 16.3953 32.0359 13.6999 32.0359 10.3784C32.0359 7.08866 29.3298 4.39323 26.0295 4.40384ZM23.0263 8.46822C23.0263 7.95884 23.4402 7.54498 23.9602 7.54498C24.4908 7.54498 24.9046 7.95884 24.894 8.48944C24.8834 8.99882 24.4589 9.4233 23.9602 9.4233C23.4402 9.41268 23.0157 8.9882 23.0263 8.46822ZM25.223 13.0632C25.0638 13.3179 24.8516 13.4771 24.5332 13.4877C24.2467 13.4771 24.0132 13.3603 23.8753 13.095C23.7373 12.8403 23.7373 12.575 23.8965 12.3204C24.4483 11.4502 24.9895 10.5906 25.5413 9.73104C25.9658 9.05188 26.4009 8.37271 26.836 7.70416C27.1013 7.29029 27.547 7.16295 27.9184 7.40702C28.2898 7.64049 28.3747 8.0968 28.1094 8.52128C27.1544 10.0176 26.1887 11.5351 25.223 13.0632ZM28.067 13.2011C27.5576 13.2011 27.1331 12.7767 27.1331 12.2673C27.1331 11.7367 27.5364 11.3334 28.0776 11.3334C28.6082 11.3334 29.0114 11.7367 29.0008 12.2567C29.0114 12.7873 28.587 13.2118 28.067 13.2011Z" fill="#634AF9"/>
</svg>
