<svg width="32" height="33" viewBox="0 0 32 33" fill="none" xmlns="http://www.w3.org/2000/svg">
<path d="M15.272 29.8441C14.1405 28.9361 3.63366 18.7185 3.51621 18.6068C3.05217 18.1427 2.75999 17.6615 2.67979 17.2204C2.59672 16.7621 2.73708 16.361 3.10946 15.9886C3.45606 15.642 3.88 15.4587 4.33545 15.4587C4.89116 15.4587 5.46119 15.7223 5.93669 16.2006L10.7003 20.778C10.7834 20.8583 10.8922 20.8984 10.9982 20.8984C11.1099 20.8984 11.2188 20.8554 11.3019 20.7723C11.468 20.6062 11.468 20.3369 11.3047 20.1708L3.69954 12.3164C2.93759 11.5544 2.57953 10.3886 3.4847 9.48343C3.8313 9.13683 4.25525 8.9535 4.7107 8.9535C5.26641 8.9535 5.83644 9.21703 6.31194 9.6954L14.0918 17.2805C14.1749 17.3607 14.2838 17.4037 14.3926 17.4037C14.5015 17.4037 14.6132 17.3607 14.6963 17.2777C14.8624 17.1115 14.8653 16.8423 14.6991 16.6733L5.3552 7.09446C4.92267 6.66192 4.662 6.14345 4.61617 5.63931C4.5732 5.12657 4.75366 4.65106 5.14037 4.26436C5.48697 3.91776 5.91091 3.73443 6.36636 3.73443C6.92207 3.73443 7.4921 3.99796 7.9676 4.47347L17.4977 13.7658C17.5808 13.846 17.6896 13.889 17.7985 13.889C17.9073 13.889 18.019 13.846 18.1021 13.763C18.2683 13.5968 18.2711 13.3276 18.105 13.1585L11.1844 6.04606C10.749 5.61066 10.4883 5.09506 10.4454 4.59091C10.4024 4.07817 10.5829 3.60267 10.9696 3.21596C11.3162 2.86936 11.7401 2.68604 12.1956 2.68604C12.7513 2.68604 13.3213 2.94957 13.7968 3.42793C16.3347 5.92003 22.9603 12.4367 23.1837 12.6773C24.0344 13.2645 24.2063 12.3765 24.2493 11.8008C24.298 11.1305 23.5303 8.79023 23.9771 6.68484C24.7276 3.88625 26.8903 4.34457 26.939 4.36748C28.1249 4.92319 27.8986 5.75389 27.4775 7.42387L27.4346 7.75329C26.9934 9.93602 30.024 16.404 30.2475 16.8881C31.4362 19.489 32.8055 24.7625 28.271 29.297C23.3011 34.2669 17.1482 31.7203 15.272 29.8441Z" fill="url(#paint0_radial_12_423)"/>
<path d="M21.6483 32.6341C18.6005 32.6341 16.0081 31.1761 14.9855 30.1649C14.066 29.4144 8.26261 23.8115 3.53623 19.2255C3.34431 19.0393 3.2326 18.9333 3.22114 18.919C2.68548 18.3833 2.3532 17.8248 2.25868 17.2977C2.14983 16.699 2.33602 16.1576 2.80579 15.685C3.23546 15.2553 3.76252 15.029 4.33542 15.029C5.00857 15.029 5.68459 15.3384 6.24029 15.897L10.9982 20.4687L3.39014 12.6143C2.51361 11.7378 2.07249 10.2855 3.18104 9.17978C3.61071 8.75011 4.13777 8.52381 4.71067 8.52381C5.38382 8.52381 6.05983 8.83318 6.61554 9.39175L14.3897 16.9711L5.04867 7.39521C4.55025 6.89679 4.24376 6.28666 4.18933 5.67939C4.13491 5.03202 4.35834 4.43908 4.8367 3.96071C5.26637 3.53104 5.79344 3.30474 6.36633 3.30474C7.03662 3.30474 7.71263 3.61124 8.27121 4.16982L17.7984 13.4593L10.8779 6.34682C10.3766 5.84553 10.0701 5.2354 10.0185 4.62813C9.96411 3.98363 10.1875 3.39068 10.6659 2.91231C11.0956 2.48264 11.6226 2.25635 12.1955 2.25635C12.8687 2.25635 13.5447 2.56571 14.1004 3.12428L16.1657 5.14947C19.8465 8.7587 22.923 11.7807 23.2524 12.1187C23.4128 12.2476 23.6219 12.2963 23.7107 12.2534C23.768 12.2247 23.831 12.0929 23.8196 11.8151C23.8024 11.3281 23.7336 10.7237 23.662 10.085C23.5188 8.80167 23.3698 7.47255 23.556 6.59602C23.9628 5.07499 24.762 4.43048 25.3578 4.15263C26.177 3.77452 26.9705 3.90628 27.1223 3.9779C28.6118 4.67683 28.3168 5.84553 27.91 7.46682L27.9014 7.50693L27.8556 7.84207C27.5577 9.30868 29.0873 13.3619 30.617 16.6646L30.6399 16.7105C31.6625 18.9448 33.5044 24.6766 28.5775 29.6035C26.3117 31.8635 23.8597 32.6341 21.6483 32.6341ZM4.33542 15.8884C3.99741 15.8884 3.67659 16.0287 3.41306 16.2923C3.14093 16.5644 3.04641 16.8279 3.1037 17.143C3.16671 17.4896 3.42165 17.9021 3.81981 18.3031C3.82268 18.306 3.93726 18.4177 4.13491 18.6068C10.8435 25.1177 14.8939 28.9876 15.5412 29.5089L15.5756 29.5405C17.1568 31.1216 23.0318 33.9288 27.9673 28.9933C32.5132 24.4474 30.8032 19.1396 29.855 17.0657L29.835 17.0227C28.8496 14.8973 26.6096 9.74122 27.0077 7.68453L27.0736 7.25485C27.5147 5.5018 27.5405 5.13514 26.7929 4.77422C26.5723 4.73412 24.9911 4.5422 24.3867 6.79654C24.2349 7.51552 24.381 8.83031 24.5099 9.99043C24.5844 10.6464 24.6531 11.268 24.6703 11.7865C24.699 12.6028 24.3123 12.9151 24.0774 13.0296C23.599 13.2617 23.029 13.064 22.6738 12.7661L22.6365 12.7317C22.4618 12.5427 18.3055 8.46653 15.5556 5.76819L13.4874 3.73728C12.7828 3.02976 11.8747 2.91231 11.2646 3.52244C10.9667 3.82035 10.832 4.16982 10.8636 4.55652C10.8979 4.96041 11.1156 5.38149 11.4794 5.74528L18.4143 12.8578C18.7409 13.19 18.7409 13.7343 18.4086 14.0666C18.0906 14.3845 17.5292 14.3903 17.2026 14.0752L7.6668 4.77995C6.96214 4.07529 6.05124 3.95785 5.44397 4.56798C5.14606 4.86588 5.01144 5.21535 5.04294 5.60205C5.08018 6.00594 5.29788 6.42989 5.65881 6.78794L15.0056 16.3725C15.335 16.7048 15.3321 17.249 14.9999 17.5813C14.6819 17.8992 14.1205 17.905 13.7939 17.5899L6.01114 10.0019C5.30648 9.29149 4.39557 9.17691 3.78831 9.78705C3.04641 10.5289 3.4417 11.4484 4.00314 12.0127L11.614 19.8729C11.9406 20.2051 11.9377 20.7465 11.6055 21.0759C11.2846 21.3968 10.7289 21.3996 10.4024 21.0874L5.63875 16.51C5.23773 16.1061 4.77655 15.8884 4.33542 15.8884Z" fill="#EDA600"/>
<path d="M22.499 12.3994C20.9264 15.6105 21.1298 20.1048 23.4901 23.7112C23.7565 24.1982 24.212 23.9604 23.98 23.4591C21.1298 17.3607 24.1175 12.9666 24.1175 12.9666L22.499 12.3994Z" fill="#EDA600"/>
<path d="M16.3146 0.357024C17.1797 0.130731 18.1021 0.150782 18.9986 0.359889C19.8895 0.574724 20.7803 1.02731 21.442 1.76634C22.0894 2.49965 22.4876 3.3905 22.6222 4.32432C22.7482 5.24954 22.6308 6.20341 22.1925 6.99401C22.141 6.10602 21.9863 5.28965 21.7256 4.53629C21.591 4.16104 21.4335 3.80298 21.2415 3.46498C21.0525 3.12983 20.829 2.79755 20.5913 2.52543C20.1072 1.96686 19.4512 1.53146 18.7151 1.19345C17.976 0.843984 17.1711 0.586182 16.3146 0.357024Z" fill="#B0BEC5"/>
<path d="M16.5524 3.07275C17.0308 2.76912 17.6294 2.7061 18.1937 2.80635C18.7638 2.90661 19.308 3.19019 19.7377 3.58263C20.1645 3.98079 20.4681 4.48207 20.6572 5.0034C20.7489 5.26407 20.7947 5.53906 20.8377 5.80546C20.852 6.08045 20.852 6.35544 20.809 6.63042C20.6114 6.42132 20.4567 6.21221 20.3106 6.00883C20.1416 5.81691 20.0098 5.61354 19.858 5.42735C19.5601 5.05783 19.2708 4.72269 18.9586 4.42478C18.6377 4.13547 18.2997 3.88053 17.9073 3.65997C17.5177 3.43367 17.0795 3.24462 16.5524 3.07275Z" fill="#90A4AE"/>
<path d="M0.176221 21.2217C0.580111 22.0123 1.00119 22.7456 1.49101 23.393C1.97797 24.0403 2.53655 24.5903 3.18678 24.9484C3.50187 25.1231 3.87712 25.2749 4.24377 25.3895C4.61329 25.5069 4.99713 25.5871 5.39243 25.6416C6.18302 25.739 7.01372 25.7218 7.89311 25.5871C7.21137 26.1801 6.30047 26.4952 5.37238 26.5639C4.43283 26.6269 3.47896 26.4236 2.62535 25.9423C1.766 25.4525 1.13582 24.6734 0.740522 23.8455C0.345225 23.012 0.133254 22.1154 0.176221 21.2217Z" fill="#B0BEC5"/>
<path d="M2.88313 20.8865C3.16098 21.3677 3.43597 21.7544 3.73674 22.0924C4.03465 22.4304 4.35547 22.7083 4.70493 22.9604C5.06013 23.2038 5.4497 23.4187 5.87364 23.6335C6.08561 23.7424 6.3119 23.8283 6.53533 23.9543C6.76735 24.0546 7.00224 24.1606 7.24859 24.3124C6.98792 24.4098 6.72152 24.4671 6.4494 24.51C6.18014 24.5215 5.90228 24.5358 5.62729 24.4986C5.07732 24.4241 4.52734 24.2322 4.0461 23.897C3.57347 23.5562 3.18103 23.0835 2.9662 22.5479C2.7485 22.0151 2.68548 21.4193 2.88313 20.8865Z" fill="#90A4AE"/>
<defs>
<radialGradient id="paint0_radial_12_423" cx="0" cy="0" r="1" gradientUnits="userSpaceOnUse" gradientTransform="translate(10.8367 9.95317) rotate(-45) scale(26.0689)">
<stop offset="0.3533" stop-color="#FFCA28"/>
<stop offset="0.8723" stop-color="#FFB300"/>
</radialGradient>
</defs>
</svg>
