<svg width="27" height="30" viewBox="0 0 27 30" fill="none" xmlns="http://www.w3.org/2000/svg">
<path d="M3.89758 4.29537C3.89758 3.29693 3.89758 2.35049 3.89758 1.40405C3.89758 0.728028 3.98131 0.644825 4.67212 0.644825C5.88625 0.644825 7.08992 0.644825 8.30405 0.644825C8.90065 0.644825 9.00532 0.748829 9.00532 1.36245C9.00532 2.31929 9.00532 3.27613 9.00532 4.26417C9.49725 4.26417 9.94732 4.26417 10.4393 4.26417C10.4497 4.10816 10.4602 3.96255 10.4602 3.82735C10.4602 2.75611 10.4602 1.69527 10.4602 0.624024C10.4602 0.114404 10.5753 0 11.0777 0C12.3547 0 13.6316 0 14.9085 0C15.4319 0 15.547 0.114404 15.547 0.655226C15.547 1.70567 15.547 2.76651 15.547 3.81695C15.547 3.96255 15.547 4.10816 15.547 4.27457C16.1227 4.27457 16.646 4.27457 17.2217 4.27457C17.2321 4.12896 17.2426 3.98336 17.2426 3.83775C17.2426 2.96412 17.2426 2.08008 17.2426 1.20645C17.2426 0.728028 17.3159 0.655226 17.7764 0.655226C19.315 0.655226 20.8536 0.655226 22.3817 0.655226C22.8527 0.655226 22.9365 0.738429 22.9365 1.19605C22.9365 2.20489 22.9365 3.22413 22.9365 4.28497C23.1039 4.29537 23.2505 4.30577 23.397 4.30577C24.0669 4.30577 24.7263 4.29537 25.3961 4.30577C25.8357 4.31617 26.066 4.55538 26.1079 4.98179C26.1183 5.1066 26.1079 5.221 26.1079 5.34581C26.1079 13.3333 26.1079 21.3104 26.1079 29.2979C26.1079 29.9532 26.0765 29.9844 25.4171 29.9844C24.5379 29.9844 24.5379 29.9844 24.5379 29.1211C24.5379 28.8819 24.5379 28.6427 24.5379 28.3723C17.1065 28.3723 9.71705 28.3723 2.27525 28.3723C2.27525 28.7467 2.26478 29.1107 2.27525 29.4748C2.28571 29.8284 2.16011 29.9948 1.78331 29.9948C0.705245 30.0156 0.715711 30.026 0.715711 28.9547C0.715711 21.1232 0.715711 13.2813 0.715711 5.44981C0.715711 5.30421 0.705245 5.1482 0.715711 5.00259C0.747111 4.54498 0.987845 4.31617 1.44838 4.30577C2.25431 4.28497 3.03931 4.29537 3.89758 4.29537ZM17.8392 19.2199C17.8392 17.8679 17.8392 16.5574 17.8392 15.247C17.8392 14.7686 17.9857 14.6126 18.4777 14.6126C19.7546 14.6126 21.0315 14.6126 22.3085 14.6126C22.8109 14.6126 22.9469 14.7582 22.9469 15.2782C22.9469 16.443 22.9469 17.5975 22.9469 18.7623C22.9469 18.9079 22.9469 19.0535 22.9469 19.2095C23.5017 19.2095 24.0041 19.2095 24.5169 19.2095C24.5169 17.2439 24.5169 15.299 24.5169 13.3541C17.0961 13.3541 9.70659 13.3541 2.31711 13.3541C2.31711 15.3302 2.31711 17.2647 2.31711 19.1991C2.85091 19.1991 3.36378 19.1991 3.88711 19.1991C3.88711 18.1903 3.88711 17.2127 3.88711 16.2454C3.88711 15.6526 3.96038 15.5798 4.57792 15.5798C5.51992 15.5798 6.45145 15.5798 7.39345 15.5798C8.08425 15.5798 8.78552 15.5798 9.47632 15.5798C10.0101 15.5798 10.0834 15.6526 10.0834 16.1934C10.0834 16.8383 10.0834 17.4935 10.0834 18.1383C10.0834 18.4815 10.0834 18.8351 10.0834 19.2303C10.3765 19.2303 10.6172 19.2095 10.8579 19.2303C11.1929 19.2615 11.308 19.1575 11.2975 18.8039C11.2766 17.5975 11.2871 16.4014 11.2871 15.195C11.2871 14.7478 11.4336 14.5918 11.8627 14.5918C13.1815 14.5814 14.5003 14.5814 15.8191 14.5918C16.2273 14.5918 16.3739 14.7478 16.3739 15.1638C16.3843 16.0166 16.3739 16.8695 16.3739 17.7223C16.3739 18.2007 16.3739 18.6895 16.3739 19.1991C16.8763 19.2199 17.3368 19.2199 17.8392 19.2199ZM3.89758 26.7602C3.89758 26.5626 3.89758 26.417 3.89758 26.2714C3.89758 25.0026 3.89758 23.7337 3.89758 22.4649C3.89758 21.9865 4.04411 21.8408 4.52558 21.8304C5.80252 21.8304 7.07945 21.8304 8.35638 21.8304C8.85879 21.8304 8.99485 21.9761 9.00532 22.4857C9.00532 23.7545 9.00532 25.0234 9.00532 26.2922C9.00532 26.4378 9.00532 26.5834 9.00532 26.7498C9.50772 26.7498 9.95779 26.7498 10.4602 26.7498C10.4602 26.573 10.4602 26.4066 10.4602 26.2506C10.4602 24.9922 10.4602 23.7337 10.4602 22.4857C10.4602 21.9449 10.5858 21.8304 11.1405 21.8304C12.3965 21.8304 13.6421 21.8304 14.8981 21.8304C15.4319 21.8304 15.5575 21.9553 15.5575 22.5065C15.5575 23.7753 15.5575 25.0442 15.5575 26.313C15.5575 26.4586 15.5575 26.6042 15.5575 26.7394C15.9866 26.7394 16.3634 26.7394 16.7611 26.7394C16.7611 25.585 16.7611 24.4618 16.7611 23.3489C16.7611 22.8913 16.8553 22.7977 17.3054 22.7977C18.9905 22.7977 20.6757 22.7977 22.3608 22.7977C22.8527 22.7977 22.9469 22.8913 22.9469 23.4009C22.9469 24.3785 22.9469 25.3458 22.9469 26.3234C22.9469 26.469 22.9574 26.6042 22.9679 26.7498C23.5121 26.7498 24.0041 26.7498 24.5274 26.7498C24.5274 24.7634 24.5274 22.7977 24.5274 20.8112C17.117 20.8112 9.72752 20.8112 2.31711 20.8112C2.31711 22.8081 2.31711 24.7634 2.31711 26.7498C2.85091 26.7602 3.34285 26.7602 3.89758 26.7602ZM24.5379 5.85543C17.1065 5.85543 9.71705 5.85543 2.31711 5.85543C2.31711 7.8315 2.31711 9.78678 2.31711 11.7525C2.85091 11.7525 3.35331 11.7525 3.89758 11.7525C3.89758 11.5757 3.89758 11.43 3.89758 11.2844C3.89758 10.0156 3.89758 8.74674 3.89758 7.47789C3.89758 6.97867 4.04411 6.83307 4.55698 6.83307C5.81298 6.83307 7.05852 6.83307 8.31452 6.83307C8.87972 6.83307 9.01579 6.96827 9.01579 7.51949C9.01579 8.78834 9.01579 10.0572 9.01579 11.326C9.01579 11.4716 9.01579 11.6173 9.01579 11.7525C9.52865 11.7525 9.97872 11.7525 10.4707 11.7525C10.4707 11.5548 10.4707 11.3988 10.4707 11.2428C10.4707 9.99479 10.4707 8.75714 10.4707 7.50909C10.4707 6.94747 10.5963 6.82267 11.1719 6.82267C12.3965 6.82267 13.6211 6.82267 14.8457 6.82267C15.4633 6.82267 15.5679 6.92667 15.5679 7.56109C15.5679 8.64274 15.5679 9.72438 15.5679 10.806C15.5679 11.8461 15.5679 11.8461 16.6251 11.7733C16.6669 11.7733 16.6983 11.7421 16.7821 11.7109C16.7821 11.5757 16.7821 11.43 16.7821 11.2844C16.7821 10.286 16.7925 9.28756 16.7821 8.28912C16.7821 7.94591 16.9286 7.8003 17.274 7.8003C19.0115 7.8003 20.7594 7.8003 22.4969 7.8003C22.8423 7.8003 22.9783 7.96671 22.9783 8.29952C22.9679 9.12115 22.9783 9.94279 22.9783 10.7748C22.9783 11.0972 22.9783 11.4196 22.9783 11.7525C23.5331 11.7525 24.0355 11.7525 24.5588 11.7525C24.5379 9.78678 24.5379 7.84191 24.5379 5.85543Z" fill="#634AF9"/>
</svg>
