<svg width="17" height="20" viewBox="0 0 17 20" fill="none" xmlns="http://www.w3.org/2000/svg">
<path d="M15.6241 14.3856L14.3087 12.5247C14.1163 12.236 14.02 11.9153 14.02 11.5943V6.9105C14.02 3.60619 11.5177 0.911223 8.27737 0.750875C6.60919 0.654551 5.03707 1.26424 3.85001 2.41905C2.6309 3.57414 1.98917 5.11395 1.98917 6.78213V11.6266C1.98917 11.9796 1.89284 12.3003 1.70046 12.557L0.385025 14.4178C0.128339 14.7708 0 15.1878 0 15.6049C0 16.7276 0.930385 17.6581 2.05323 17.6581H13.9876C15.1103 17.6581 16.0408 16.7277 16.0408 15.6049C16.009 15.1555 15.8807 14.7385 15.624 14.3855L15.6241 14.3856Z" fill="#404040"/>
<path d="M10.0105 18.396H5.9681C5.51903 18.396 5.16602 18.749 5.16602 19.1981C5.16602 19.6471 5.51902 20.0002 5.9681 20.0002H9.97843C10.4275 20.0002 10.7805 19.6472 10.7805 19.1981C10.7805 18.7487 10.4275 18.396 10.0105 18.396Z" fill="#404040"/>
</svg>
