<svg width="37" height="35" viewBox="0 0 37 35" fill="none" xmlns="http://www.w3.org/2000/svg">
<path d="M20.9348 12.6693C20.9348 12.2992 20.7877 11.9442 20.526 11.6825C20.2642 11.4207 19.9093 11.2737 19.5391 11.2737H8.37392C8.00377 11.2737 7.64878 11.4207 7.38705 11.6825C7.12531 11.9442 6.97827 12.2992 6.97827 12.6693C6.97827 13.0395 7.12531 13.3945 7.38705 13.6562C7.64878 13.9179 8.00377 14.065 8.37392 14.065H19.5391C19.9093 14.065 20.2642 13.9179 20.526 13.6562C20.7877 13.3945 20.9348 13.0395 20.9348 12.6693ZM19.0739 18.2519C19.0739 17.8818 18.9268 17.5268 18.6651 17.2651C18.4034 17.0033 18.0484 16.8563 17.6782 16.8563H8.37392C8.00377 16.8563 7.64878 17.0033 7.38705 17.2651C7.12531 17.5268 6.97827 17.8818 6.97827 18.2519C6.97827 18.6221 7.12531 18.9771 7.38705 19.2388C7.64878 19.5005 8.00377 19.6476 8.37392 19.6476H17.6782C18.0484 19.6476 18.4034 19.5005 18.6651 19.2388C18.9268 18.9771 19.0739 18.6221 19.0739 18.2519ZM19.5391 22.4389C19.9093 22.4389 20.2642 22.5859 20.526 22.8476C20.7877 23.1094 20.9348 23.4644 20.9348 23.8345C20.9348 24.2047 20.7877 24.5597 20.526 24.8214C20.2642 25.0831 19.9093 25.2302 19.5391 25.2302H8.37392C8.00377 25.2302 7.64878 25.0831 7.38705 24.8214C7.12531 24.5597 6.97827 24.2047 6.97827 23.8345C6.97827 23.4644 7.12531 23.1094 7.38705 22.8476C7.64878 22.5859 8.00377 22.4389 8.37392 22.4389H19.5391Z" fill="#FFB300"/>
<path fill-rule="evenodd" clip-rule="evenodd" d="M6.97824 35H31.1695C32.5267 35 33.8283 34.4609 34.788 33.5012C35.7477 32.5415 36.2868 31.2398 36.2868 29.8826V19.6479C36.2868 19.2777 36.1398 18.9227 35.8781 18.661C35.6163 18.3993 35.2613 18.2522 34.8912 18.2522H28.8434V3.72446C28.8434 1.07645 25.8493 -0.464344 23.6944 1.07459L23.3687 1.3072C22.6556 1.8134 21.8025 2.08472 20.9279 2.08338C20.0534 2.08205 19.2011 1.80813 18.4895 1.29976C17.3016 0.454306 15.8798 0 14.4217 0C12.9636 0 11.5418 0.454306 10.3538 1.29976C9.64229 1.80813 8.78995 2.08205 7.91544 2.08338C7.04094 2.08472 6.18777 1.8134 5.47466 1.3072L5.14901 1.07459C2.99413 -0.464344 0 1.07459 0 3.72446V28.0218C0 29.8725 0.735205 31.6475 2.04388 32.9561C3.35255 34.2648 5.1275 35 6.97824 35ZM11.9765 3.57001C12.691 3.06282 13.5455 2.79036 14.4217 2.79036C15.2979 2.79036 16.1524 3.06282 16.8669 3.57001C18.0517 4.41692 19.4713 4.87301 20.9276 4.87468C22.384 4.87635 23.8046 4.42351 24.9914 3.57931L25.3171 3.34671C25.3866 3.29722 25.4683 3.2678 25.5534 3.26167C25.6385 3.25553 25.7236 3.27291 25.7995 3.31191C25.8754 3.3509 25.9391 3.41001 25.9837 3.48278C26.0282 3.55554 26.0519 3.63915 26.0521 3.72446V29.8826C26.0521 30.72 26.2531 31.5109 26.6104 32.2087H6.97824C5.86779 32.2087 4.80283 31.7676 4.01762 30.9824C3.23242 30.1972 2.7913 29.1322 2.7913 28.0218V3.72446C2.79152 3.63915 2.8152 3.55554 2.85974 3.48278C2.90429 3.41001 2.96798 3.3509 3.04386 3.31191C3.11974 3.27291 3.20489 3.25553 3.28998 3.26167C3.37507 3.2678 3.45684 3.29722 3.52634 3.34671L3.85199 3.57931C5.03875 4.42351 6.45936 4.87635 7.91574 4.87468C9.37213 4.87301 10.7917 4.41692 11.9765 3.57001ZM28.8434 29.8826V21.0435H33.4956V29.8826C33.4956 30.4995 33.2505 31.0912 32.8143 31.5274C32.378 31.9636 31.7864 32.2087 31.1695 32.2087C30.5526 32.2087 29.9609 31.9636 29.5247 31.5274C29.0885 31.0912 28.8434 30.4995 28.8434 29.8826Z" fill="#FFB300"/>
</svg>
