<svg width="31" height="30" viewBox="0 0 31 30" fill="none" xmlns="http://www.w3.org/2000/svg">
<path d="M0.411743 15C0.411743 15.9946 0.806832 16.9484 1.51009 17.6516C2.21335 18.3549 3.16718 18.75 4.16174 18.75C5.1563 18.75 6.11013 18.3549 6.81339 17.6516C7.51665 16.9484 7.91174 15.9946 7.91174 15C7.91174 14.0054 7.51665 13.0516 6.81339 12.3484C6.11013 11.6451 5.1563 11.25 4.16174 11.25C3.16718 11.25 2.21335 11.6451 1.51009 12.3484C0.806832 13.0516 0.411743 14.0054 0.411743 15ZM0.411743 3.75C0.411743 4.74456 0.806832 5.69839 1.51009 6.40165C2.21335 7.10491 3.16718 7.5 4.16174 7.5C5.1563 7.5 6.11013 7.10491 6.81339 6.40165C7.51665 5.69839 7.91174 4.74456 7.91174 3.75C7.91174 2.75544 7.51665 1.80161 6.81339 1.09835C6.11013 0.395088 5.1563 0 4.16174 0C3.16718 0 2.21335 0.395088 1.51009 1.09835C0.806832 1.80161 0.411743 2.75544 0.411743 3.75ZM0.411743 26.25C0.411743 27.2446 0.806832 28.1984 1.51009 28.9016C2.21335 29.6049 3.16718 30 4.16174 30C5.1563 30 6.11013 29.6049 6.81339 28.9016C7.51665 28.1984 7.91174 27.2446 7.91174 26.25C7.91174 25.2554 7.51665 24.3016 6.81339 23.5984C6.11013 22.8951 5.1563 22.5 4.16174 22.5C3.16718 22.5 2.21335 22.8951 1.51009 23.5984C0.806832 24.3016 0.411743 25.2554 0.411743 26.25Z" fill="#634AF9"/>
<path d="M11.6617 15C11.6617 15.9946 12.0568 16.9484 12.7601 17.6516C13.4634 18.3549 14.4172 18.75 15.4117 18.75C16.4063 18.75 17.3601 18.3549 18.0634 17.6516C18.7667 16.9484 19.1617 15.9946 19.1617 15C19.1617 14.0054 18.7667 13.0516 18.0634 12.3484C17.3601 11.6451 16.4063 11.25 15.4117 11.25C14.4172 11.25 13.4634 11.6451 12.7601 12.3484C12.0568 13.0516 11.6617 14.0054 11.6617 15ZM11.6617 3.75C11.6617 4.74456 12.0568 5.69839 12.7601 6.40165C13.4634 7.10491 14.4172 7.5 15.4117 7.5C16.4063 7.5 17.3601 7.10491 18.0634 6.40165C18.7667 5.69839 19.1617 4.74456 19.1617 3.75C19.1617 2.75544 18.7667 1.80161 18.0634 1.09835C17.3601 0.395088 16.4063 0 15.4117 0C14.4172 0 13.4634 0.395088 12.7601 1.09835C12.0568 1.80161 11.6617 2.75544 11.6617 3.75ZM11.6617 26.25C11.6617 27.2446 12.0568 28.1984 12.7601 28.9016C13.4634 29.6049 14.4172 30 15.4117 30C16.4063 30 17.3601 29.6049 18.0634 28.9016C18.7667 28.1984 19.1617 27.2446 19.1617 26.25C19.1617 25.2554 18.7667 24.3016 18.0634 23.5984C17.3601 22.8951 16.4063 22.5 15.4117 22.5C14.4172 22.5 13.4634 22.8951 12.7601 23.5984C12.0568 24.3016 11.6617 25.2554 11.6617 26.25Z" fill="#634AF9"/>
<path d="M22.9117 15C22.9117 15.9946 23.3068 16.9484 24.0101 17.6516C24.7134 18.3549 25.6672 18.75 26.6617 18.75C27.6563 18.75 28.6101 18.3549 29.3134 17.6516C30.0167 16.9484 30.4117 15.9946 30.4117 15C30.4117 14.0054 30.0167 13.0516 29.3134 12.3484C28.6101 11.6451 27.6563 11.25 26.6617 11.25C25.6672 11.25 24.7134 11.6451 24.0101 12.3484C23.3068 13.0516 22.9117 14.0054 22.9117 15ZM22.9117 3.75C22.9117 4.74456 23.3068 5.69839 24.0101 6.40165C24.7134 7.10491 25.6672 7.5 26.6617 7.5C27.6563 7.5 28.6101 7.10491 29.3134 6.40165C30.0167 5.69839 30.4117 4.74456 30.4117 3.75C30.4117 2.75544 30.0167 1.80161 29.3134 1.09835C28.6101 0.395088 27.6563 0 26.6617 0C25.6672 0 24.7134 0.395088 24.0101 1.09835C23.3068 1.80161 22.9117 2.75544 22.9117 3.75ZM22.9117 26.25C22.9117 27.2446 23.3068 28.1984 24.0101 28.9016C24.7134 29.6049 25.6672 30 26.6617 30C27.6563 30 28.6101 29.6049 29.3134 28.9016C30.0167 28.1984 30.4117 27.2446 30.4117 26.25C30.4117 25.2554 30.0167 24.3016 29.3134 23.5984C28.6101 22.8951 27.6563 22.5 26.6617 22.5C25.6672 22.5 24.7134 22.8951 24.0101 23.5984C23.3068 24.3016 22.9117 25.2554 22.9117 26.25Z" fill="#634AF9"/>
</svg>
