<svg width="34" height="30" viewBox="0 0 34 30" fill="none" xmlns="http://www.w3.org/2000/svg">
<path d="M4.07843 30V8.5L0.82843 1.41667L3.82843 0L7.7451 8.41667H27.0784L30.9951 0L33.9951 1.41667L30.7451 8.5V30H4.07843ZM14.0784 18.3333H20.7451C21.2173 18.3333 21.6134 18.1733 21.9334 17.8533C22.2534 17.5333 22.4129 17.1378 22.4118 16.6667C22.4118 16.1944 22.2518 15.7989 21.9318 15.48C21.6118 15.1611 21.2162 15.0011 20.7451 15H14.0784C13.6062 15 13.2107 15.16 12.8918 15.48C12.5729 15.8 12.4129 16.1956 12.4118 16.6667C12.4118 17.1389 12.5718 17.535 12.8918 17.855C13.2118 18.175 13.6073 18.3344 14.0784 18.3333Z" fill="#634AF9"/>
</svg>
