<svg width="17" height="17" viewBox="0 0 17 17" fill="none" xmlns="http://www.w3.org/2000/svg">
<path d="M6.5641 12.6496V7.51282L1.09402 4.77778V12.2991L5.74359 14.6325L5.47863 15.7179L0 12.9829V3.54701L7.11111 0L14.2222 3.54701V5.8547C13.8234 5.91738 13.4587 6.04558 13.1282 6.23932V4.77778L7.65812 7.51282V11.5556L6.5641 12.6496ZM5.35043 2.09402L10.3419 4.94872L12.453 3.88889L7.11111 1.21368L5.35043 2.09402ZM7.11111 6.5641L9.16239 5.53846L4.17094 2.68376L1.76923 3.88889L7.11111 6.5641ZM14.7009 7.17094C14.9402 7.17094 15.1624 7.21368 15.3675 7.29915C15.5726 7.38462 15.755 7.50142 15.9145 7.64957C16.0741 7.79772 16.1937 7.97721 16.2735 8.18804C16.3533 8.39886 16.3989 8.62393 16.4103 8.86325C16.4103 9.08547 16.3675 9.30199 16.2821 9.51282C16.1966 9.72365 16.0741 9.90883 15.9145 10.0684L9.78632 16.1966L6.5641 17L7.36752 13.7778L13.4957 7.65812C13.661 7.49288 13.8462 7.37037 14.0513 7.2906C14.2564 7.21083 14.4729 7.17094 14.7009 7.17094ZM15.1368 9.29915C15.2564 9.17949 15.3162 9.03419 15.3162 8.86325C15.3162 8.68661 15.2593 8.54416 15.1453 8.4359C15.0313 8.32764 14.8832 8.27066 14.7009 8.26496C14.6211 8.26496 14.5442 8.27635 14.4701 8.29915C14.396 8.32194 14.3305 8.36467 14.2735 8.42735L8.35897 14.3419L8.06838 15.4957L9.22222 15.2051L15.1368 9.29915Z" fill="#634AF9"/>
</svg>
