<svg width="40" height="35" viewBox="0 0 40 35" fill="none" xmlns="http://www.w3.org/2000/svg">
<path d="M6.27716 19.3948C6.27716 19.1534 6.27716 18.912 6.27716 18.6705C6.27716 13.3591 6.27716 8.12812 6.27716 2.81667C6.27716 0.965717 7.24288 0 9.09384 0C16.1758 0 23.2577 0 30.3396 0C32.1906 0 33.1563 0.965717 33.1563 2.81667C33.1563 8.93288 33.1563 14.9686 33.1563 21.0848C33.1563 21.3263 33.1563 21.4872 33.1563 21.8091C33.7196 21.6482 34.283 21.4872 34.7658 21.3263C36.6973 20.7629 38.5482 21.5677 39.192 23.3382C39.8358 25.1086 39.0311 26.9596 37.1801 27.7644C33.1563 29.5349 29.1325 31.3053 25.0282 32.9953C23.9015 33.4782 22.6944 33.5587 21.4872 33.7196C18.5096 34.122 15.532 34.5244 12.4738 34.9268C11.1862 35.0877 9.97908 35.0072 8.85241 34.4439C7.56478 33.8001 6.19669 33.2368 4.90906 32.593C3.78239 32.0296 2.57525 31.7077 1.28762 31.7882C1.12667 31.7882 0.965717 31.7882 0.804764 31.7077C0.241429 31.5468 0 31.0639 0 30.5006C0.0804764 29.9372 0.482859 29.5349 1.04619 29.5349C2.41429 29.4544 3.78239 29.6153 5.07002 30.1787C6.35764 30.742 7.64526 31.3053 8.85241 31.9491C10.0596 32.593 11.3472 32.8344 12.7153 32.593C16.1758 32.1101 19.7167 31.6272 23.1772 31.2249C23.5796 31.1444 23.982 31.0639 24.3844 30.9029C28.3277 29.2129 32.1906 27.5229 36.1339 25.8329C36.2144 25.7525 36.3753 25.7525 36.4558 25.672C37.0192 25.3501 37.3411 24.7063 37.0996 24.1429C36.8582 23.5796 36.2949 23.2577 35.5706 23.4186C34.122 23.9015 32.6734 24.3844 31.1444 24.7867C28.9715 25.4306 26.8791 26.1548 24.7063 26.7987C23.982 27.0401 23.1772 27.0401 22.3724 27.1206C19.6362 27.1206 16.8196 27.1206 14.0834 27.1206C12.9567 27.1206 12.0715 26.4767 11.7496 25.511C11.4277 24.6258 11.6691 23.4991 12.4738 22.8553C12.7153 22.6944 12.9567 22.5334 13.1981 22.3724C15.6929 20.9239 18.2682 19.3948 20.7629 17.9462C21.4872 17.5439 21.7286 16.7391 21.4872 16.0148C21.2458 15.2905 20.5215 14.8881 19.7972 15.0491C19.5558 15.1296 19.3143 15.21 19.0729 15.371C16.4172 16.9 13.8419 18.3486 11.2667 19.8777C9.09384 21.1653 6.76002 21.8896 4.18477 21.8896C3.21906 21.8896 2.17286 21.8896 1.20715 21.8896C0.563335 21.8896 0.160953 21.4872 0.0804765 21.0043C1.79879e-08 20.5215 0.241429 19.9582 0.724288 19.7972C0.965717 19.7167 1.20715 19.7167 1.44858 19.7167C2.7362 19.7167 4.02382 19.6362 5.31144 19.6362C5.55287 19.5558 5.87478 19.4753 6.27716 19.3948ZM26.5572 2.25334C26.4767 4.1043 25.9134 5.71383 24.6258 7.00145C23.3382 8.28907 21.8091 9.01336 20.0386 9.09384C18.3486 9.17431 16.8196 8.69145 15.532 7.64526C13.8419 6.27716 12.9567 4.50668 12.8762 2.25334C11.6691 2.25334 10.4619 2.25334 9.25479 2.25334C8.45003 2.25334 8.45003 2.25334 8.45003 2.97763C8.45003 7.96717 8.45003 13.0372 8.45003 18.0267C8.45003 18.1877 8.45003 18.3486 8.45003 18.6705C8.93288 18.4291 9.41574 18.1877 9.81812 17.9462C12.5543 16.3367 15.2905 14.8077 18.0267 13.1981C18.9924 12.6348 20.0386 12.3934 21.0848 12.7153C22.6944 13.1981 23.5796 14.3248 23.821 15.9343C23.982 17.5439 23.3382 18.8315 21.9701 19.7167C19.3948 21.2458 16.8196 22.7748 14.2443 24.3039C14.0834 24.3844 14.0029 24.6258 13.9224 24.7063C14.0834 24.7867 14.2443 24.8672 14.4053 24.8672C16.9805 24.8672 19.6362 24.8672 22.2115 24.8672C22.7748 24.8672 23.4186 24.8672 23.982 24.7063C26.0744 24.1429 28.1667 23.4186 30.2591 22.8553C30.742 22.6944 30.903 22.5334 30.903 21.9701C30.903 15.6929 30.903 9.33527 30.903 3.0581C30.903 2.89715 30.9834 2.7362 30.903 2.65572C30.8225 2.49477 30.6615 2.33382 30.5006 2.33382C29.2934 2.25334 27.9253 2.25334 26.5572 2.25334ZM15.1296 2.33382C15.0491 4.74811 17.3024 6.76002 19.8777 6.67954C22.2115 6.59907 24.3844 4.4262 24.2234 2.33382C21.2458 2.33382 18.1877 2.33382 15.1296 2.33382Z" fill="#F092FF"/>
</svg>
