<svg width="29" height="30" viewBox="0 0 29 30" fill="none" xmlns="http://www.w3.org/2000/svg">
<path d="M23.5852 11.9275C22.19 11.4952 20.9912 11.1284 19.7925 10.755C20.0087 9.96894 20.4607 9.90999 21.155 10.1524C22.4716 10.6109 23.8145 10.9974 25.1507 11.3707C25.5634 11.4886 25.8123 11.6786 25.9892 12.0782C26.4739 13.1917 26.9783 14.2922 27.5154 15.3796C27.8102 15.9756 27.6595 16.2639 27.0438 16.4735C23.8407 17.5608 20.6441 18.6613 17.454 19.7749C16.9104 19.9648 16.609 19.8207 16.347 19.3098C15.7182 18.0652 15.0304 16.8534 14.3295 15.5564C13.6548 16.6372 12.9932 17.6525 12.3841 18.694C12.0893 19.1984 11.7749 19.277 11.2377 19.1002C8.0739 18.0652 4.90352 17.0499 1.72659 16.0542C1.0781 15.8512 0.90779 15.5499 1.23531 14.921C1.79209 13.873 2.30302 12.7987 2.7943 11.7179C2.99736 11.2659 3.31178 11.0563 3.77686 10.9515C5.06073 10.6502 6.3446 10.3554 7.60883 9.9886C8.25731 9.79864 8.75514 9.73968 8.88615 10.6174C7.76604 10.9253 6.60662 11.2397 5.27034 11.6C8.28352 12.4515 11.0871 13.2507 13.8906 14.0433C14.1854 14.1284 14.4605 14.1743 14.7946 14.0957C17.6571 13.3686 20.5131 12.6808 23.5852 11.9275Z" fill="#634AF9"/>
<path d="M13.9369 18.0782C13.9369 22.1525 13.9369 26.0303 13.9369 29.9999C12.3714 29.502 10.8583 29.0108 9.33856 28.526C7.47171 27.9299 5.60485 27.3339 3.72489 26.764C3.16811 26.5937 2.95195 26.2989 2.9585 25.7028C2.9847 23.1678 2.99125 20.6263 2.95195 18.0913C2.93885 17.4231 3.16811 17.469 3.64629 17.6328C6.04373 18.4319 8.45426 19.2048 10.8583 19.9909C12.1487 20.4101 12.5745 20.2595 13.295 19.1066C13.4719 18.8249 13.6487 18.5367 13.9369 18.0782Z" fill="#634AF9"/>
<path d="M14.9192 29.9477C14.9192 26.1616 14.9192 22.4475 14.9192 18.55C15.2205 19.0741 15.4432 19.4605 15.6659 19.8535C16.2358 20.8623 16.7664 21.0719 17.8407 20.7051C20.2577 19.8732 22.6683 19.0282 25.0788 18.1963C25.3146 18.1111 25.557 18.0325 25.878 17.9277C25.878 20.6592 25.878 23.3121 25.878 25.9716C25.878 26.2926 25.747 26.5153 25.4325 26.6135C21.9477 27.7205 18.4564 28.8276 14.9192 29.9477Z" fill="#634AF9"/>
<path d="M10.9819 1.17834C11.0867 1.22419 11.2308 1.2766 11.3684 1.3421C12.1151 1.67617 12.9732 1.3552 13.2483 0.562605C13.5103 -0.190689 14.0999 0.0647759 14.6043 0.0123729C15.0693 -0.0334797 15.4427 0.0254737 15.6196 0.582256C15.8619 1.33555 16.7921 1.70237 17.5126 1.32245C18.2856 0.916325 18.4952 1.62377 18.9013 1.93163C19.2616 2.20675 19.4122 2.51462 19.1502 2.99279C18.6917 3.85089 19.0061 4.63694 19.9232 4.95136C20.3882 5.11512 20.5258 5.40333 20.4668 5.82911C20.4013 6.32039 20.7223 6.91647 19.969 7.21779C18.8751 7.65011 18.6917 8.15449 19.1306 9.26151C19.1895 9.41216 19.255 9.53662 19.2026 9.70038C18.9603 10.434 17.886 10.9384 17.2048 10.6436C16.6349 10.3947 15.8226 10.6895 15.672 11.2921C15.4624 12.1306 14.9056 12.1502 14.2112 12.1764C13.5234 12.1961 13.2418 11.9144 13.0584 11.3118C12.8553 10.6567 12.0431 10.303 11.4732 10.6764C10.733 11.1677 10.4186 10.6305 9.97969 10.2441C9.52771 9.85104 9.37706 9.49077 9.73733 8.92089C10.0779 8.37065 9.73733 7.506 9.08884 7.33569C8.11938 7.07368 8.42725 6.33349 8.36175 5.70465C8.30279 5.14132 8.58446 4.93826 9.06919 4.7876C9.74388 4.58454 10.0714 3.72644 9.78318 3.05175C9.52771 2.49497 10.3203 1.19799 10.9819 1.17834ZM14.3881 3.73954C13.1108 3.75264 12.1348 4.7614 12.1675 6.03872C12.2003 7.27674 13.1894 8.25275 14.4143 8.25275C15.6589 8.2593 16.6873 7.21779 16.6807 5.97322C16.6742 4.70899 15.6589 3.71989 14.3881 3.73954Z" fill="#634AF9"/>
<path d="M26.566 3.93594C26.566 5.87485 26.5725 7.5714 26.5594 9.27449C26.5594 9.66097 26.7167 10.2309 26.114 10.244C25.5048 10.2636 25.6293 9.70027 25.6293 9.30725C25.6227 7.57795 25.6293 5.84865 25.6293 3.89664C25.328 4.27656 25.1315 4.51237 24.9546 4.76129C24.745 5.0626 24.4764 5.20016 24.1751 4.96435C23.8934 4.74818 23.9851 4.46652 24.1882 4.2176C24.6795 3.58877 25.1577 2.94683 25.6555 2.31799C25.9765 1.91187 26.2909 1.95772 26.5987 2.3573C27.09 2.99268 27.5813 3.62152 28.0791 4.25036C28.2822 4.50582 28.3543 4.77439 28.0726 4.9971C27.7647 5.24601 27.5027 5.10191 27.2865 4.82024C27.09 4.57132 26.8935 4.34206 26.566 3.93594Z" fill="#634AF9"/>
<path d="M3.22673 3.95559C3.22673 5.90761 3.22673 7.64346 3.22673 9.37931C3.22673 9.77233 3.27258 10.2571 2.7289 10.2505C2.15246 10.244 2.29002 9.71993 2.28347 9.35965C2.27692 7.60415 2.27692 5.84865 2.27692 3.89009C1.9363 4.31586 1.70704 4.61063 1.46468 4.88575C1.24851 5.12811 0.979948 5.21327 0.717932 4.984C0.469018 4.76784 0.560723 4.52548 0.737584 4.29621C1.24196 3.64118 1.75289 2.98614 2.26382 2.33765C2.55859 1.96428 2.87301 1.98393 3.16122 2.33765C3.6787 2.97959 4.19618 3.62808 4.68746 4.28966C4.87087 4.53858 4.92982 4.83334 4.62196 5.03641C4.36649 5.20672 4.13068 5.09536 3.94727 4.8661C3.74421 4.61063 3.54114 4.34862 3.22673 3.95559Z" fill="#634AF9"/>
</svg>
