<svg width="10" height="13" viewBox="0 0 10 13" fill="none" xmlns="http://www.w3.org/2000/svg">
<path d="M5.0002 13L9.7072 8.293C9.80005 8.20016 9.87369 8.08993 9.92394 7.96863C9.97419 7.84732 10.0001 7.7173 10.0001 7.586C10.0001 7.4547 9.97419 7.32468 9.92394 7.20337C9.87369 7.08207 9.80005 6.97184 9.7072 6.879C9.61436 6.78616 9.50413 6.71251 9.38283 6.66226C9.26152 6.61201 9.1315 6.58615 9.0002 6.58615C8.8689 6.58615 8.73888 6.61201 8.61758 6.66226C8.49627 6.71251 8.38605 6.78616 8.2932 6.879L6.0002 9.172L6.0002 1.586C6.0002 1.32078 5.89484 1.06643 5.70731 0.878893C5.51977 0.691356 5.26542 0.586 5.0002 0.586C4.73499 0.586 4.48063 0.691356 4.29309 0.878892C4.10556 1.06643 4.0002 1.32078 4.0002 1.586L4.0002 9.172L1.7072 6.879C1.61455 6.78581 1.50439 6.71186 1.38305 6.6614C1.26172 6.61094 1.13161 6.58496 1.0002 6.58496C0.868793 6.58496 0.738681 6.61094 0.617348 6.6614C0.496015 6.71186 0.385853 6.78581 0.2932 6.879C0.200254 6.97179 0.126518 7.08199 0.0762067 7.20331C0.0258956 7.32462 4.84788e-07 7.45467 4.73307e-07 7.586C4.61825e-07 7.71733 0.0258956 7.84738 0.0762066 7.96869C0.126518 8.09001 0.200254 8.20021 0.2932 8.293L5.0002 13Z" fill="#FF3D00"/>
</svg>
