<svg width="39" height="30" viewBox="0 0 39 30" fill="none" xmlns="http://www.w3.org/2000/svg">
<path d="M35.2941 8.82353C32.6471 8.82353 31.2353 11.2941 31.9412 13.2353L25.5882 19.5882C25.0588 19.4118 24.3529 19.4118 23.8235 19.5882L19.2353 15C19.9412 13.0588 18.5294 10.5882 15.8824 10.5882C13.4118 10.5882 11.8235 13.0588 12.5294 15L4.41176 22.9412C2.47059 22.4118 0 23.8235 0 26.4706C0 28.4118 1.58824 30 3.52941 30C6 30 7.58823 27.5294 6.88235 25.5882L14.8235 17.4706C15.3529 17.6471 16.0588 17.6471 16.5882 17.4706L21.1765 22.0588C20.6471 23.8235 22.0588 26.4706 24.7059 26.4706C27.3529 26.4706 28.7647 24 28.0588 22.0588L34.4118 15.7059C36.3529 16.2353 38.8235 14.8235 38.8235 12.3529C38.8235 10.4118 37.2353 8.82353 35.2941 8.82353ZM24.7059 10.5882L26.2941 6.88235L30 5.29412L26.2941 3.70588L24.7059 0L23.1176 3.70588L19.4118 5.29412L23.1176 6.88235L24.7059 10.5882ZM4.41176 14.1176L5.29412 10.5882L8.82353 9.70588L5.29412 8.82353L4.41176 5.29412L3.52941 8.82353L0 9.70588L3.52941 10.5882L4.41176 14.1176Z" fill="#634AF9"/>
</svg>
