<svg width="31" height="30" viewBox="0 0 31 30" fill="none" xmlns="http://www.w3.org/2000/svg">
<path d="M30.5953 23.8609C30.5953 23.9349 30.5706 24.009 30.5459 24.0769C30.2867 24.762 29.8608 25.0706 29.1387 25.0706C26.0527 25.0706 22.9729 25.0706 19.8869 25.0706C18.9734 25.0706 18.4303 24.5275 18.418 23.614C18.4118 22.429 18.4118 21.244 18.418 20.0589C18.4241 19.1393 18.9549 18.6024 19.8745 18.6024C22.9605 18.5962 26.0403 18.6024 29.1263 18.5962C29.8114 18.5962 30.2496 18.9048 30.5089 19.4603C30.5706 19.5899 30.5953 19.7257 30.5953 19.8676V23.8609Z" fill="#634AF9"/>
<path d="M7.98669 17.6209C7.85708 17.985 7.75215 18.2874 7.63488 18.6146C7.91262 18.7874 8.17802 18.9478 8.44341 19.1145C9.30749 19.6514 10.1716 20.1884 11.0418 20.713C11.7639 21.1512 12.1096 21.7684 12.0293 22.614C11.8812 24.2249 11.7392 25.8419 11.5849 27.4528C11.5479 27.8355 11.5294 28.2243 11.4492 28.6008C11.264 29.4711 10.4061 30.0883 9.57288 29.9895C8.60388 29.8722 7.90028 29.1439 7.94348 28.2058C7.99286 27.1319 8.11013 26.058 8.20271 24.9902C8.24591 24.4903 8.30146 23.9903 8.33849 23.4842C8.34466 23.3978 8.3138 23.2744 8.25825 23.2312C7.88176 22.9781 7.49293 22.7498 7.07941 22.4967C7.15347 22.8115 7.24605 23.0769 7.27691 23.3546C7.33246 23.8299 7.16581 24.2496 6.88808 24.6261C5.76478 26.1505 4.64148 27.6812 3.50583 29.1995C2.98122 29.9031 2.19738 30.15 1.43822 29.8908C0.716102 29.6439 0.228516 28.965 0.228516 28.1996C0.228516 27.7491 0.407503 27.3602 0.672898 27.0023C1.54315 25.8296 2.40722 24.6508 3.28364 23.4781C3.43177 23.2806 3.44411 23.1201 3.36388 22.8917C2.8516 21.4598 2.3455 20.0279 1.86409 18.5899C1.59252 17.7752 1.63573 16.9728 1.9505 16.1581C2.60473 14.467 3.20341 12.7512 3.82678 11.0477C3.84529 11.0045 3.85764 10.9551 3.9317 10.9058C3.96256 11.1526 3.99342 11.3995 4.01811 11.6464C4.17241 12.9919 4.28967 14.3374 4.49335 15.6767C4.72788 17.2012 6.2215 18.1023 7.70278 17.6888C7.78301 17.6641 7.85708 17.6456 7.98669 17.6209Z" fill="#634AF9"/>
<path d="M14.1709 15.7693C13.3994 15.7693 12.6711 15.7631 11.9428 15.7693C11.5786 15.7754 11.2639 15.7014 10.9985 15.436C10.9429 15.3804 10.7825 15.3866 10.6899 15.4236C9.6715 15.8186 8.65929 16.2383 7.63475 16.6333C6.61637 17.0222 5.6844 16.4914 5.48073 15.4175C5.43752 15.1768 5.41283 14.9299 5.38815 14.683C5.25236 13.4856 5.12892 12.2883 4.9808 11.0909C4.86353 10.0972 5.32026 9.35659 6.18433 9.1776C7.02989 9.00479 7.85076 9.53558 7.98655 10.3873C8.12233 11.2576 8.20257 12.1278 8.31366 13.0474C8.40624 13.0104 8.49265 12.9857 8.57906 12.9548C9.57892 12.5598 10.5726 12.1525 11.5786 11.7637C12.5415 11.3933 13.5043 11.8501 13.7141 12.8005C13.7759 13.0783 13.7265 13.3869 13.7265 13.714C13.8005 13.7202 13.9055 13.7263 14.0104 13.7263C14.4239 13.7325 14.8436 13.714 15.2571 13.7387C15.8003 13.7695 16.1644 14.1399 16.2261 14.683C16.2385 14.8003 16.2323 14.9175 16.2323 15.041C16.2323 18.7256 16.2323 22.4103 16.2323 26.1012C16.2323 26.2184 16.2323 26.3357 16.2323 26.4962C16.3743 26.4962 16.5039 26.4962 16.6273 26.4962C20.3737 26.4962 24.1201 26.4962 27.8603 26.4962C28.4713 26.4962 28.8416 26.7307 28.9959 27.2059C29.1996 27.8355 28.7676 28.4835 28.1134 28.5267C27.7986 28.5453 27.4776 28.5206 27.1629 28.5453C27.0765 28.5514 26.953 28.6378 26.9222 28.7181C26.6259 29.4587 26.0457 29.8907 25.3113 29.8907C24.5645 29.8907 23.972 29.4649 23.7004 28.7242C23.651 28.5823 23.5831 28.5267 23.4288 28.5267C22.2932 28.5329 21.1575 28.5329 20.0219 28.5267C19.8367 28.5267 19.775 28.6008 19.7195 28.7613C19.4788 29.4464 18.8492 29.8846 18.1333 29.8846C17.3988 29.8846 16.7816 29.4649 16.5347 28.7489C16.4668 28.5576 16.3743 28.5144 16.1953 28.5206C15.8682 28.5329 15.541 28.5329 15.2201 28.5206C14.6399 28.5021 14.2388 28.1256 14.1894 27.5454C14.177 27.4405 14.1832 27.3294 14.1832 27.2183C14.1832 23.5336 14.1832 19.8489 14.1832 16.1581C14.1709 16.047 14.1709 15.9297 14.1709 15.7693Z" fill="#634AF9"/>
<path d="M21.2941 16.7322C20.467 16.7322 19.6338 16.7384 18.8068 16.7322C17.8625 16.726 17.3255 16.1891 17.3193 15.2386C17.3132 14.2202 17.3132 13.2018 17.3193 12.1835C17.3193 11.2268 17.8686 10.6775 18.8315 10.6775C20.4917 10.6775 22.152 10.6775 23.8122 10.6775C24.7504 10.6775 25.312 11.233 25.312 12.1649C25.3182 13.1895 25.3182 14.2202 25.312 15.2448C25.3059 16.1891 24.7689 16.726 23.8184 16.7322C22.9729 16.7322 22.1335 16.7322 21.2941 16.7322Z" fill="#634AF9"/>
<path d="M12.2266 3.17239C12.2328 4.91906 10.8256 6.34479 9.07277 6.35096C7.31993 6.35713 5.87568 4.91906 5.88186 3.17857C5.8942 1.4319 7.3261 0.00617197 9.06042 0C10.7947 0 12.2205 1.42573 12.2266 3.17239Z" fill="#634AF9"/>
<path d="M4.7832 8.73324C5.31399 7.97409 5.98674 7.52971 6.84464 7.40627C8.59131 7.16556 10.0232 8.21479 10.3565 9.94912C10.3627 9.9985 10.3688 10.0479 10.375 10.0972C10.4429 11.1218 10.3318 11.2637 9.19617 11.5785C9.14062 11.1403 9.09124 10.7021 9.02335 10.2639C8.7271 8.35058 6.45581 7.4433 4.91899 8.67769C4.88813 8.69621 4.86344 8.70238 4.7832 8.73324Z" fill="#634AF9"/>
</svg>
