<svg width="130" height="189" viewBox="0 0 130 189" fill="none" xmlns="http://www.w3.org/2000/svg">
<path d="M0.5 94.5C0.5 42.5852 42.5852 0.5 94.5 0.5H129.5V188.5H94.5C42.5852 188.5 0.5 146.415 0.5 94.5Z" fill="white" stroke="#EBEBEB"/>
<circle cx="65" cy="95" r="34.25" fill="white" stroke="#634AF9" stroke-width="1.5"/>
<path d="M67.2454 88.1182C67.2454 86.3823 67.8685 84.9135 69.0703 83.6672C70.3166 82.421 71.8299 81.7979 73.7438 81.7979C76.1473 81.7979 78.0611 82.8661 79.5744 84.958C81.0878 87.0499 81.7999 89.4089 81.7999 91.9904C81.7999 94.6165 81.0877 97.3761 79.6189 100.314C78.1501 103.251 76.6368 105.477 75.1235 106.99C73.6102 108.503 72.631 109.26 72.1859 109.26C71.9189 109.26 71.2958 108.904 70.4056 108.236L70.005 107.969C69.2928 107.48 68.9367 107.124 68.9367 106.812C68.9367 106.634 69.3373 105.966 70.094 104.898C72.1859 101.871 73.2096 99.5125 73.2096 97.7766C73.2096 96.4414 72.2304 95.0616 70.2275 93.6373C68.2246 92.3465 67.2454 90.4771 67.2454 88.1182ZM48.3735 88.1182C48.3735 86.3823 48.9966 84.9135 50.2429 83.6672C51.4892 82.421 53.047 81.7979 54.8719 81.7979C57.2754 81.7979 59.1892 82.8661 60.7026 84.958C62.2159 87.0499 62.928 89.4089 62.928 91.9904C62.928 95.7737 61.5482 99.6015 58.8332 103.474C56.1181 107.346 54.2487 109.305 53.2695 109.305C53.0025 109.305 52.3794 108.948 51.4892 108.281L51.0886 108.014C50.3764 107.524 50.0204 107.168 50.0204 106.857C50.0204 106.678 50.421 106.011 51.1776 104.943C53.2695 101.916 54.3377 99.557 54.3377 97.8211C54.3377 96.4859 53.3585 95.1061 51.3556 93.6818C49.3972 92.3465 48.3735 90.4771 48.3735 88.1182Z" fill="#634AF9"/>
</svg>
