<svg width="19" height="22" viewBox="0 0 19 22" fill="none" xmlns="http://www.w3.org/2000/svg">
<path d="M15.8523 21.0492C14.675 22.1765 13.3896 21.9985 12.1523 21.4645C10.8429 20.9187 9.64158 20.8949 8.26008 21.4645C6.53021 22.2002 5.61723 21.9866 4.58411 21.0492C-1.27823 15.0806 -0.413292 5.99116 6.2419 5.65891C7.86366 5.74197 8.99288 6.537 9.9419 6.60819C11.3594 6.32341 12.7169 5.50465 14.2305 5.61145C16.0445 5.75384 17.414 6.4658 18.315 7.74734C14.5669 9.96629 15.4559 14.8432 18.8916 16.2078C18.2068 17.9877 17.3179 19.7558 15.8403 21.0611L15.8523 21.0492ZM9.82177 5.58771C9.64158 2.94158 11.8159 0.758229 14.3146 0.54464C14.663 3.60608 11.5036 5.88437 9.82177 5.58771Z" fill="black"/>
</svg>
