<svg width="23" height="22" viewBox="0 0 23 22" fill="none" xmlns="http://www.w3.org/2000/svg">
<path d="M21.9329 9.1336H21.0726V9.08928H11.4599V13.3616H17.4961C16.6155 15.8486 14.2491 17.6339 11.4599 17.6339C7.92077 17.6339 5.05137 14.7645 5.05137 11.2254C5.05137 7.68636 7.92077 4.81696 11.4599 4.81696C13.0935 4.81696 14.5797 5.43324 15.7113 6.43991L18.7324 3.41884C16.8248 1.64102 14.2732 0.54464 11.4599 0.54464C5.56138 0.54464 0.779053 5.32697 0.779053 11.2254C0.779053 17.1239 5.56138 21.9062 11.4599 21.9062C17.3583 21.9062 22.1406 17.1239 22.1406 11.2254C22.1406 10.5093 22.067 9.81023 21.9329 9.1336Z" fill="#FFC107"/>
<path d="M2.0105 6.25406L5.51967 8.8276C6.4692 6.47676 8.76877 4.81696 11.4598 4.81696C13.0934 4.81696 14.5797 5.43324 15.7113 6.43991L18.7324 3.41884C16.8248 1.64102 14.2731 0.54464 11.4598 0.54464C7.35731 0.54464 3.79953 2.86077 2.0105 6.25406Z" fill="#FF3D00"/>
<path d="M11.4598 21.9063C14.2186 21.9063 16.7254 20.8505 18.6207 19.1335L15.315 16.3362C14.2066 17.1791 12.8522 17.635 11.4598 17.6339C8.68168 17.6339 6.32282 15.8625 5.43418 13.3905L1.95117 16.074C3.71884 19.533 7.30866 21.9063 11.4598 21.9063Z" fill="#4CAF50"/>
<path d="M21.933 9.1336H21.0727V9.08928H11.46V13.3616H17.4962C17.075 14.5453 16.3162 15.5796 15.3136 16.3367L15.3152 16.3357L18.6209 19.133C18.387 19.3455 22.1408 16.5658 22.1408 11.2254C22.1408 10.5093 22.0671 9.81023 21.933 9.1336Z" fill="#1976D2"/>
</svg>
