<svg width="21" height="20" viewBox="0 0 21 20" fill="none" xmlns="http://www.w3.org/2000/svg">
<path d="M10.3335 12.6296L9.39079 13.4675L10.3335 14.3055L11.2761 13.4675L10.3335 12.6296ZM11.6668 1.96296C11.6668 1.64863 11.5263 1.34717 11.2763 1.1249C11.0262 0.902639 10.6871 0.777771 10.3335 0.777771C9.97983 0.777771 9.64069 0.902639 9.39065 1.1249C9.1406 1.34717 9.00012 1.64863 9.00012 1.96296H11.6668ZM2.72412 7.54162L9.39079 13.4675L11.2761 11.7917L4.60945 5.86577L2.72412 7.54162ZM11.2761 13.4675L17.9428 7.54162L16.0575 5.86577L9.39079 11.7917L11.2761 13.4675ZM11.6668 12.6296V1.96296H9.00012V12.6296H11.6668Z" fill="white"/>
<path d="M1 15V16.1852C1 16.8138 1.28095 17.4168 1.78105 17.8613C2.28115 18.3058 2.95942 18.5556 3.66667 18.5556H17C17.7072 18.5556 18.3855 18.3058 18.8856 17.8613C19.3857 17.4168 19.6667 16.8138 19.6667 16.1852V15" stroke="white" stroke-width="2"/>
</svg>
