<svg width="14" height="14" viewBox="0 0 14 14" fill="none" xmlns="http://www.w3.org/2000/svg">
<path d="M12.7165 7.588H8.13314V12.1713C8.13314 12.4144 8.03656 12.6476 7.86465 12.8195C7.69274 12.9914 7.45959 13.088 7.21647 13.088C6.97336 13.088 6.7402 12.9914 6.56829 12.8195C6.39638 12.6476 6.2998 12.4144 6.2998 12.1713V7.588H1.71647C1.47336 7.588 1.2402 7.49142 1.06829 7.31952C0.896382 7.14761 0.799805 6.91445 0.799805 6.67134C0.799805 6.42822 0.896382 6.19506 1.06829 6.02315C1.2402 5.85125 1.47336 5.75467 1.71647 5.75467H6.2998V1.17134C6.2998 0.928221 6.39638 0.695063 6.56829 0.523154C6.7402 0.351246 6.97336 0.254669 7.21647 0.254669C7.45959 0.254669 7.69274 0.351246 7.86465 0.523154C8.03656 0.695063 8.13314 0.928221 8.13314 1.17134V5.75467H12.7165C12.9596 5.75467 13.1927 5.85125 13.3647 6.02315C13.5366 6.19506 13.6331 6.42822 13.6331 6.67134C13.6331 6.91445 13.5366 7.14761 13.3647 7.31952C13.1927 7.49142 12.9596 7.588 12.7165 7.588Z" fill="#404040"/>
</svg>
