<svg width="17" height="17" viewBox="0 0 17 17" fill="none" xmlns="http://www.w3.org/2000/svg">
<path d="M7.17224 2.70382V2.91133H10.4925V2.70382C10.4925 2.26353 10.3176 1.84127 10.0062 1.52993C9.69491 1.2186 9.27265 1.0437 8.83236 1.0437C8.39207 1.0437 7.96981 1.2186 7.65848 1.52993C7.34714 1.84127 7.17224 2.26353 7.17224 2.70382ZM6.13466 2.91133V2.70382C6.13466 1.98834 6.41888 1.30217 6.9248 0.796257C7.43072 0.29034 8.11689 0.00611877 8.83236 0.00611877C9.54783 0.00611877 10.234 0.29034 10.7399 0.796257C11.2458 1.30217 11.5301 1.98834 11.5301 2.70382V2.91133H16.1992C16.3367 2.91133 16.4687 2.96599 16.566 3.06328C16.6633 3.16057 16.7179 3.29253 16.7179 3.43012C16.7179 3.56771 16.6633 3.69967 16.566 3.79696C16.4687 3.89425 16.3367 3.94891 16.1992 3.94891H14.9885L14.1584 13.8499C14.0954 14.6018 13.7521 15.3025 13.1968 15.8132C12.6414 16.324 11.9144 16.6074 11.1599 16.6073H6.50487C5.75042 16.6073 5.02353 16.3238 4.46823 15.8131C3.91293 15.3024 3.56975 14.6017 3.50669 13.8499L2.67663 3.94891H1.46557C1.32797 3.94891 1.19602 3.89425 1.09873 3.79696C1.00144 3.69967 0.946777 3.56771 0.946777 3.43012C0.946777 3.29253 1.00144 3.16057 1.09873 3.06328C1.19602 2.96599 1.32797 2.91133 1.46557 2.91133H6.13466ZM4.54053 13.7631C4.58184 14.2557 4.80669 14.7148 5.17051 15.0494C5.53433 15.384 6.01057 15.5697 6.50487 15.5698H11.1599C11.6542 15.5698 12.1306 15.3842 12.4945 15.0495C12.8584 14.7149 13.0833 14.2558 13.1246 13.7631L13.9472 3.94891H3.71752L4.54053 13.7631ZM7.79478 6.75037C7.79478 6.68224 7.78136 6.61478 7.75529 6.55184C7.72922 6.48889 7.69101 6.4317 7.64283 6.38353C7.59466 6.33535 7.53747 6.29714 7.47453 6.27107C7.41158 6.245 7.34412 6.23158 7.276 6.23158C7.20787 6.23158 7.14041 6.245 7.07746 6.27107C7.01452 6.29714 6.95733 6.33535 6.90916 6.38353C6.86098 6.4317 6.82277 6.48889 6.7967 6.55184C6.77063 6.61478 6.75721 6.68224 6.75721 6.75037V12.7683C6.75721 12.8364 6.77063 12.9039 6.7967 12.9668C6.82277 13.0298 6.86098 13.087 6.90916 13.1352C6.95733 13.1833 7.01452 13.2215 7.07746 13.2476C7.14041 13.2737 7.20787 13.2871 7.276 13.2871C7.34412 13.2871 7.41158 13.2737 7.47453 13.2476C7.53747 13.2215 7.59466 13.1833 7.64283 13.1352C7.69101 13.087 7.72922 13.0298 7.75529 12.9668C7.78136 12.9039 7.79478 12.8364 7.79478 12.7683V6.75037ZM10.3887 6.23158C10.6751 6.23158 10.9075 6.464 10.9075 6.75037V12.7683C10.9075 12.9059 10.8529 13.0379 10.7556 13.1352C10.6583 13.2324 10.5263 13.2871 10.3887 13.2871C10.2511 13.2871 10.1192 13.2324 10.0219 13.1352C9.92459 13.0379 9.86994 12.9059 9.86994 12.7683V6.75037C9.86994 6.464 10.1024 6.23158 10.3887 6.23158Z" fill="#FF3D00"/>
</svg>
