<svg width="20" height="15" viewBox="0 0 20 15" fill="none" xmlns="http://www.w3.org/2000/svg">
<path fill-rule="evenodd" clip-rule="evenodd" d="M18.6875 2.105L10.7963 8.64C10.572 8.82579 10.29 8.92745 9.99875 8.92745C9.70755 8.92745 9.42549 8.82579 9.20125 8.64L1.31375 2.105C1.27141 2.23238 1.24988 2.36576 1.25 2.5V12.5C1.25 12.8315 1.3817 13.1495 1.61612 13.3839C1.85054 13.6183 2.16848 13.75 2.5 13.75H17.5C17.8315 13.75 18.1495 13.6183 18.3839 13.3839C18.6183 13.1495 18.75 12.8315 18.75 12.5V2.5C18.7505 2.36583 18.7294 2.23245 18.6875 2.105ZM2.5 0H17.5C18.163 0 18.7989 0.263392 19.2678 0.732233C19.7366 1.20107 20 1.83696 20 2.5V12.5C20 13.163 19.7366 13.7989 19.2678 14.2678C18.7989 14.7366 18.163 15 17.5 15H2.5C1.83696 15 1.20107 14.7366 0.732233 14.2678C0.263392 13.7989 0 13.163 0 12.5V2.5C0 1.83696 0.263392 1.20107 0.732233 0.732233C1.20107 0.263392 1.83696 0 2.5 0ZM2.2375 1.25L9.2075 7.00375C9.43073 7.18813 9.71105 7.2893 10.0006 7.28999C10.2901 7.29067 10.5709 7.19082 10.795 7.0075L17.835 1.25H2.2375Z" fill="#404040"/>
</svg>
