<svg width="20" height="20" viewBox="0 0 20 20" fill="none" xmlns="http://www.w3.org/2000/svg">
<path fill-rule="evenodd" clip-rule="evenodd" d="M9 2C8.60603 2 8.21593 2.0776 7.85195 2.22836C7.48797 2.37913 7.15726 2.6001 6.87868 2.87868C6.6001 3.15726 6.37913 3.48797 6.22836 3.85195C6.0776 4.21593 6 4.60603 6 5C6 5.39397 6.0776 5.78407 6.22836 6.14805C6.37913 6.51203 6.6001 6.84274 6.87868 7.12132C7.15726 7.3999 7.48797 7.62087 7.85195 7.77164C8.21593 7.9224 8.60603 8 9 8C9.79565 8 10.5587 7.68393 11.1213 7.12132C11.6839 6.55871 12 5.79565 12 5C12 4.20435 11.6839 3.44129 11.1213 2.87868C10.5587 2.31607 9.79565 2 9 2ZM4 5C4 3.67392 4.52678 2.40215 5.46447 1.46447C6.40215 0.526784 7.67392 0 9 0C10.3261 0 11.5979 0.526784 12.5355 1.46447C13.4732 2.40215 14 3.67392 14 5C14 6.32608 13.4732 7.59785 12.5355 8.53553C11.5979 9.47322 10.3261 10 9 10C7.67392 10 6.40215 9.47322 5.46447 8.53553C4.52678 7.59785 4 6.32608 4 5ZM2.413 15.601C2.09 16.011 2 16.321 2 16.5C2 16.622 2.037 16.751 2.255 16.926C2.504 17.126 2.937 17.333 3.599 17.508C4.917 17.858 6.811 18 9 18C9.222 18 9.441 17.998 9.658 17.995C9.92322 17.9914 10.179 18.0933 10.3691 18.2783C10.5591 18.4634 10.6679 18.7163 10.6715 18.9815C10.6751 19.2467 10.5732 19.5025 10.3882 19.6926C10.2031 19.8826 9.95022 19.9914 9.685 19.995C9.459 19.998 9.23 20 9 20C6.771 20 4.665 19.86 3.087 19.442C2.302 19.234 1.563 18.936 1.003 18.486C0.41 18.01 0 17.345 0 16.5C0 15.713 0.358 14.977 0.844 14.361C1.338 13.736 2.021 13.161 2.822 12.671C4.425 11.695 6.605 11 9 11C9.447 11 9.887 11.024 10.316 11.07C10.5798 11.098 10.8216 11.2296 10.9883 11.4359C11.155 11.6422 11.233 11.9062 11.205 12.17C11.177 12.4338 11.0454 12.6756 10.8391 12.8423C10.6328 13.009 10.3688 13.087 10.105 13.059C9.745 13.02 9.375 13 9 13C6.977 13 5.157 13.59 3.864 14.379C3.217 14.773 2.728 15.201 2.413 15.601ZM19.708 14.068C19.8902 13.8794 19.991 13.6268 19.9887 13.3646C19.9864 13.1024 19.8812 12.8516 19.6958 12.6662C19.5104 12.4808 19.2596 12.3756 18.9974 12.3733C18.7352 12.371 18.4826 12.4718 18.294 12.654L15.112 15.836L13.698 14.422C13.5094 14.2398 13.2568 14.139 12.9946 14.1413C12.7324 14.1436 12.4816 14.2488 12.2962 14.4342C12.1108 14.6196 12.0056 14.8704 12.0033 15.1326C12.001 15.3948 12.1018 15.6474 12.284 15.836L14.334 17.886C14.4362 17.9882 14.5574 18.0693 14.6909 18.1246C14.8244 18.1799 14.9675 18.2084 15.112 18.2084C15.2565 18.2084 15.3996 18.1799 15.5331 18.1246C15.6666 18.0693 15.7878 17.9882 15.89 17.886L19.708 14.068Z" fill="white"/>
</svg>
