<svg width="20" height="20" viewBox="0 0 20 20" fill="none" xmlns="http://www.w3.org/2000/svg">
<path fill-rule="evenodd" clip-rule="evenodd" d="M4 2.5C3.46957 2.5 2.96086 2.71071 2.58579 3.08579C2.21071 3.46086 2 3.96957 2 4.5V12.5C2 13.0304 2.21071 13.5391 2.58579 13.9142C2.96086 14.2893 3.46957 14.5 4 14.5H7C7.26522 14.5 7.51957 14.6054 7.70711 14.7929L10 17.0858L12.2929 14.7929C12.4804 14.6054 12.7348 14.5 13 14.5H16C16.5304 14.5 17.0391 14.2893 17.4142 13.9142C17.7893 13.5391 18 13.0304 18 12.5V4.5C18 3.96957 17.7893 3.46086 17.4142 3.08579C17.0391 2.71071 16.5304 2.5 16 2.5H4ZM1.17157 1.67157C1.92172 0.921427 2.93913 0.5 4 0.5H16C17.0609 0.5 18.0783 0.921427 18.8284 1.67157C19.5786 2.42172 20 3.43913 20 4.5V12.5C20 13.5609 19.5786 14.5783 18.8284 15.3284C18.0783 16.0786 17.0609 16.5 16 16.5H13.4142L10.7071 19.2071C10.3166 19.5976 9.68342 19.5976 9.29289 19.2071L6.58579 16.5H4C2.93913 16.5 1.92172 16.0786 1.17157 15.3284C0.421427 14.5783 0 13.5609 0 12.5V4.5C0 3.43913 0.421427 2.42172 1.17157 1.67157ZM5 6.5C5 5.94772 5.44772 5.5 6 5.5H14C14.5523 5.5 15 5.94772 15 6.5C15 7.05228 14.5523 7.5 14 7.5H6C5.44772 7.5 5 7.05228 5 6.5ZM5 10.5C5 9.94771 5.44772 9.5 6 9.5H12C12.5523 9.5 13 9.94771 13 10.5C13 11.0523 12.5523 11.5 12 11.5H6C5.44772 11.5 5 11.0523 5 10.5Z" fill="#404040"/>
</svg>
