<svg width="16" height="15" viewBox="0 0 16 15" fill="none" xmlns="http://www.w3.org/2000/svg">
<path fill-rule="evenodd" clip-rule="evenodd" d="M4.21875 9.375C3.34851 9.375 2.51391 9.7207 1.89856 10.3361C1.2832 10.9514 0.9375 11.786 0.9375 12.6562C0.9375 13.0292 1.08566 13.3869 1.34938 13.6506C1.6131 13.9143 1.97079 14.0625 2.34375 14.0625H13.5938C13.9667 14.0625 14.3244 13.9143 14.5881 13.6506C14.8518 13.3869 15 13.0292 15 12.6562C15 11.786 14.6543 10.9514 14.0389 10.3361C13.4236 9.7207 12.589 9.375 11.7188 9.375H4.21875ZM1.23564 9.67314C2.02681 8.88197 3.09987 8.4375 4.21875 8.4375H11.7188C12.8376 8.4375 13.9107 8.88197 14.7019 9.67314C15.493 10.4643 15.9375 11.5374 15.9375 12.6562C15.9375 13.2779 15.6906 13.874 15.251 14.3135C14.8115 14.7531 14.2154 15 13.5938 15H2.34375C1.72215 15 1.12601 14.7531 0.686468 14.3135C0.24693 13.874 0 13.2779 0 12.6562C0 11.5374 0.444474 10.4643 1.23564 9.67314Z" fill="#404040"/>
<path fill-rule="evenodd" clip-rule="evenodd" d="M7.96875 0.9375C6.67433 0.9375 5.625 1.98683 5.625 3.28125C5.625 4.57567 6.67433 5.625 7.96875 5.625C9.26317 5.625 10.3125 4.57567 10.3125 3.28125C10.3125 1.98683 9.26317 0.9375 7.96875 0.9375ZM4.6875 3.28125C4.6875 1.46907 6.15657 0 7.96875 0C9.78093 0 11.25 1.46907 11.25 3.28125C11.25 5.09343 9.78093 6.5625 7.96875 6.5625C6.15657 6.5625 4.6875 5.09343 4.6875 3.28125Z" fill="#404040"/>
</svg>
