<svg width="20" height="18" viewBox="0 0 20 18" fill="none" xmlns="http://www.w3.org/2000/svg">
<path fill-rule="evenodd" clip-rule="evenodd" d="M5.85969 2.06492C6.10615 0.855692 7.18246 0 8.41477 0H11.4314C12.6637 0 13.7391 0.855692 13.9865 2.06492C14.0137 2.19808 14.085 2.31819 14.1888 2.40592C14.2926 2.49366 14.4229 2.54392 14.5588 2.54862H14.5892C15.8843 2.60585 16.8794 2.76462 17.7102 3.31015C18.2335 3.65354 18.684 4.09477 19.0348 4.61077C19.4714 5.25138 19.6634 5.988 19.7557 6.87785C19.8462 7.74831 19.8462 8.83846 19.8462 10.2194V10.2978C19.8462 11.6788 19.8462 12.7698 19.7557 13.6394C19.6634 14.5292 19.4714 15.2658 19.0348 15.9074C18.6829 16.4237 18.2328 16.8656 17.7102 17.208C17.0612 17.6335 16.3163 17.8218 15.4135 17.9114C14.5292 18 13.4206 18 12.012 18H7.83415C6.42554 18 5.31692 18 4.43262 17.9114C3.52985 17.8218 2.78492 17.6345 2.136 17.208C1.61327 16.8654 1.16316 16.4231 0.811384 15.9065C0.374769 15.2658 0.182769 14.5292 0.0904616 13.6394C5.21541e-08 12.7698 0 11.6788 0 10.2978V10.2194C0 8.83846 5.21541e-08 7.74831 0.0904616 6.87785C0.182769 5.988 0.374769 5.25138 0.811384 4.61077C1.16316 4.09414 1.61327 3.65187 2.136 3.30923C2.96677 2.76462 3.96185 2.60585 5.25692 2.54954L5.27261 2.54862H5.28738C5.42322 2.54392 5.55353 2.49366 5.65734 2.40592C5.76115 2.31819 5.83242 2.19808 5.85969 2.06492ZM8.41477 1.38462C7.824 1.38462 7.32831 1.79354 7.21661 2.34092C7.03661 3.22708 6.25015 3.92492 5.304 3.93323C4.05969 3.98862 3.39323 4.14092 2.89477 4.46769C2.5245 4.71067 2.20555 5.02398 1.956 5.38985C1.70123 5.76369 1.548 6.24277 1.46677 7.02092C1.38554 7.81108 1.38462 8.83015 1.38462 10.2591C1.38462 11.688 1.38462 12.7062 1.46769 13.4963C1.548 14.2745 1.70123 14.7535 1.95692 15.1283C2.20431 15.492 2.52277 15.8058 2.89569 16.0505C3.28062 16.3025 3.77354 16.4548 4.57015 16.5342C5.37692 16.6145 6.41631 16.6154 7.872 16.6154H11.9742C13.4289 16.6154 14.4683 16.6154 15.276 16.5342C16.0726 16.4548 16.5655 16.3034 16.9505 16.0505C17.3234 15.8058 17.6428 15.492 17.8902 15.1274C18.1449 14.7535 18.2982 14.2745 18.3794 13.4963C18.4606 12.7062 18.4615 11.6871 18.4615 10.2591C18.4615 8.83015 18.4615 7.81108 18.3785 7.02092C18.2982 6.24277 18.1449 5.76369 17.8892 5.38985C17.64 5.02349 17.321 4.70983 16.9505 4.46677C16.4538 4.14092 15.7874 3.98862 14.5412 3.93323C13.596 3.924 12.8095 3.228 12.6295 2.34092C12.5705 2.06794 12.419 1.82371 12.2007 1.64948C11.9824 1.47525 11.7107 1.3817 11.4314 1.38462H8.41477ZM9.92308 7.84615C9.37224 7.84615 8.84397 8.06497 8.45447 8.45447C8.06497 8.84397 7.84615 9.37224 7.84615 9.92308C7.84615 10.4739 8.06497 11.0022 8.45447 11.3917C8.84397 11.7812 9.37224 12 9.92308 12C10.4739 12 11.0022 11.7812 11.3917 11.3917C11.7812 11.0022 12 10.4739 12 9.92308C12 9.37224 11.7812 8.84397 11.3917 8.45447C11.0022 8.06497 10.4739 7.84615 9.92308 7.84615ZM6.46154 9.92308C6.46154 9.00502 6.82623 8.12456 7.4754 7.4754C8.12456 6.82624 9.00502 6.46154 9.92308 6.46154C10.8411 6.46154 11.7216 6.82624 12.3708 7.4754C13.0199 8.12456 13.3846 9.00502 13.3846 9.92308C13.3846 10.8411 13.0199 11.7216 12.3708 12.3708C11.7216 13.0199 10.8411 13.3846 9.92308 13.3846C9.00502 13.3846 8.12456 13.0199 7.4754 12.3708C6.82623 11.7216 6.46154 10.8411 6.46154 9.92308ZM14.7692 7.15385C14.7692 6.97023 14.8422 6.79414 14.972 6.66431C15.1018 6.53448 15.2779 6.46154 15.4615 6.46154H16.3846C16.5682 6.46154 16.7443 6.53448 16.8742 6.66431C17.004 6.79414 17.0769 6.97023 17.0769 7.15385C17.0769 7.33746 17.004 7.51355 16.8742 7.64338C16.7443 7.77321 16.5682 7.84615 16.3846 7.84615H15.4615C15.2779 7.84615 15.1018 7.77321 14.972 7.64338C14.8422 7.51355 14.7692 7.33746 14.7692 7.15385Z" fill="white"/>
</svg>
